<svg id="Capa_1" data-name="Capa 1" xmlns="http://www.w3.org/2000/svg" viewBox="0 0 301.68 150.48"><defs><style>.cls-1{fill:#f26b6b;}.cls-2{fill:#f2e8dc;}</style></defs><title>favicon</title><ellipse class="cls-1" cx="150.84" cy="75.6" rx="144.18" ry="71.81"/><path class="cls-2" d="M81.31,71.78a1,1,0,0,1-.56.43c-3.53,13-10.72,19.34-23.6,22.92a12.64,12.64,0,0,0-1.81-2.5c11.71-2.93,19-9,21.71-19H48.53V70.74H78.34l.43-.25Zm-4-9.22H52.71V59.72H77.26Z"/><path class="cls-2" d="M89.12,74.28h36v3.06H90.75a1.92,1.92,0,0,1-1.37.81Z"/><path class="cls-2" d="M139,67a121.16,121.16,0,0,1,12.23,6.21,83,83,0,0,0,7.75-15l4.23,1.72c-.18.39-.78.61-1.56.52A100.92,100.92,0,0,1,154,74.75a83,83,0,0,1,9.39,6.63l-2.07,2.72a78.81,78.81,0,0,0-9.18-6.72A70.52,70.52,0,0,1,133.93,95a13.14,13.14,0,0,0-2.46-2.16,70.05,70.05,0,0,0,18.06-17,120.22,120.22,0,0,0-12.15-6.34Z"/><path class="cls-2" d="M175,61.27a53.45,53.45,0,0,1,12.84,5.86l-1.64,2.71a54.86,54.86,0,0,0-12.58-6Zm-.17,29.85c15.29-4.74,25.46-13.31,30.63-25.24a16.2,16.2,0,0,0,2.8,1.76c-5.39,11.81-15.9,21-30.5,25.85a1.43,1.43,0,0,1-.61,1Z"/><path class="cls-2" d="M221.23,68.76V71c0,7.45-.61,18.31-5.09,25.63a10.58,10.58,0,0,0-2.54-1.46C218,88,218.34,78.07,218.34,71V58.81h31.79v10Zm16.58,24h15.34v2.45h-33V92.72H235V88.06H223.73V85.65H235V81.94c-4.26.18-8.18.31-11.15.39a.8.8,0,0,1-.65.56l-1-3,5-.09a47.42,47.42,0,0,0,3.32-5.38h-9.22V72h30.89v2.46h-18.4c-.9,1.55-2.2,3.57-3.49,5.34,4.31-.13,9.18-.22,14-.39-1.46-1.12-3.06-2.24-4.52-3.14L242,74.79A45.07,45.07,0,0,1,251.3,82L249,83.58a24.46,24.46,0,0,0-2.11-2.15l-8.27.39a1.14,1.14,0,0,1-.78.3v3.53h11.72v2.41H237.81Zm9.44-31.41h-26v5h26Z"/></svg>