<svg id="Capa_1" data-name="Capa 1" xmlns="http://www.w3.org/2000/svg" viewBox="0 0 533.8 509.76"><defs><style>.cls-1{fill:#f2e8dc;}</style></defs><title>logo_wpp_claro</title><path class="cls-1" d="M73.54,459.28c7.44-27.19,14.64-53.56,21.85-79.93,2-7.24,4.11-14.45,5.85-21.75a9,9,0,0,0-.65-5.94c-19.12-34.73-27.87-72-24.89-111.39,5-66.44,35.61-118.74,90.71-156.08C203.15,59.29,244.35,47.8,288.59,51c80.1,5.8,139.44,45.15,173,117.87,32.7,70.95,24.83,140.5-20.77,204.14-32.75,45.72-78.29,72.4-134,80.72-43.13,6.43-84.12-1-122.93-20.84a9.83,9.83,0,0,0-6.36-.57q-49.6,12.8-99.14,25.86C77,458.53,75.62,458.8,73.54,459.28Zm48.65-48.15c1.26-.24,1.8-.31,2.33-.45,18.64-4.89,37.3-9.71,55.89-14.76a12.15,12.15,0,0,1,10.32,1.44c37.42,22.3,77.74,29.65,120.35,20.93,90.13-18.47,148-103.66,132.55-194.26C430.54,147.12,364.1,88.23,286.37,85c-43-1.81-81.64,10.51-114.89,37.9-38,31.3-58.72,71.93-61.76,121.07-2.23,36.19,6.87,69.74,26.43,100.32a11.71,11.71,0,0,1,1.56,10.6C132.4,373.35,127.44,392,122.19,411.13Z"/><path class="cls-1" d="M211.93,159.93c9.2-2.38,13.37,3.22,16.46,11.25,4.52,11.77,9.51,23.36,14.48,34.95,1.67,3.9,1.62,7.41-.91,10.81-4.06,5.46-8,11-12.31,16.28-2.7,3.32-3.12,6.31-.91,10.05,16.53,28,39.71,48.15,69.94,60.18,3.93,1.56,7.17,1,9.87-2.38,5.15-6.41,10.51-12.67,15.45-19.25,2.86-3.81,6.2-5,10.33-3.05,14.36,6.72,28.71,13.49,42.88,20.63,1.71.86,3.21,4.1,3.17,6.22-.36,21.48-6.68,31.86-29.77,41.53-13.07,5.48-26.61,4.13-40.06.38C261.88,334,226,303.36,197.26,263.06c-9-12.67-17.19-25.74-20.63-41.14-4.89-21.94.53-41,16.7-56.79C198.44,160.14,204.61,158.93,211.93,159.93Z"/></svg>