<svg id="Capa_1" data-name="Capa 1" xmlns="http://www.w3.org/2000/svg" viewBox="0 0 512.66 240.61"><defs><style>.cls-1{fill:#568db4;}</style></defs><title>logosecundario_azul</title><path class="cls-1" d="M385.5,109.11c.72-1.56.36-3.28-1.07-5.11-10.61-13.64-21.26-20.1-31.64-19.17-15,1.32-24.34,17.91-25,19.15a17.12,17.12,0,0,0-5.89,9.91c-2.4-14-17.72-22.6-18.92-23.25a16.72,16.72,0,0,0-12.64-6.13c-7.63,0-12.13,5.63-12.65,6.31-1.21.66-16.62,9.3-18.93,23.28A17,17,0,0,0,252.65,104c-.68-1.25-9.94-17.79-24.86-19.13-10.37-.93-21,5.52-31.62,19.18-1.42,1.83-1.78,3.55-1.07,5.1,2.21,4.84,14.5,6.79,21.42,7.51-6.92.73-19.21,2.68-21.42,7.51-.71,1.56-.35,3.27,1.07,5.1,10,12.8,19.93,19.27,29.69,19.27q1,0,1.95-.09c15-1.33,24.34-17.91,25-19.16a17.19,17.19,0,0,0,5.74-9.26c.95,9,7.37,18.16,19.14,27.31a5.8,5.8,0,0,0,3.5,1.43,3.81,3.81,0,0,0,1.61-.36c4.83-2.21,6.78-14.49,7.5-21.41.73,6.92,2.68,19.2,7.51,21.41a3.78,3.78,0,0,0,1.61.36,5.8,5.8,0,0,0,3.49-1.43c11.7-9.09,18.11-18.21,19.12-27.17a17.17,17.17,0,0,0,5.89,9.14c.69,1.26,9.95,17.79,24.86,19.14.65.06,1.31.09,2,.09,9.73,0,19.7-6.48,29.65-19.27,1.43-1.83,1.79-3.55,1.07-5.11-2.21-4.83-14.49-6.78-21.42-7.5C371,115.89,383.29,113.94,385.5,109.11ZM290.32,85.26a16,16,0,0,1,11.81,5.54l-11.81,6L278.5,91A15.83,15.83,0,0,1,290.32,85.26Zm0,36.41a12,12,0,1,1,12-12A12,12,0,0,1,290.31,121.67ZM195.78,108.8c-.6-1.3-.28-2.72,1-4.33,10.46-13.45,20.88-19.8,31-18.9C242,86.86,251,102.5,251.94,104.22l-5.48,11.14a12.72,12.72,0,0,0-25.38.88H221C218.58,116.1,198.48,114.7,195.78,108.8Zm50,7.8a12,12,0,1,1-12-12A12,12,0,0,1,245.78,116.6Zm-18,31.07c-10.12.9-20.54-5.46-31-18.89-1.26-1.62-1.58-3-1-4.34,2.7-5.89,22.8-7.29,25.24-7.44h.06a12.72,12.72,0,0,0,25.38.83L252.12,129C251.15,130.75,242.06,146.4,227.74,147.67Zm24.93-19.25-6-11.81,5.81-11.82a15.2,15.2,0,0,1,.18,23.63Zm29.84,19.27c-1.3.6-2.72.28-4.33-1-13.45-10.45-19.81-20.87-18.9-31,1.29-14.26,16.93-23.26,18.65-24.22L289.07,97A12.73,12.73,0,0,0,290,122.4v0C289.81,124.9,288.41,145,282.51,147.69Zm20-1c-1.62,1.26-3,1.58-4.34,1-5.89-2.7-7.29-22.79-7.44-25.24v0A12.73,12.73,0,0,0,291.54,97l11.17-5.66c1.75,1,17.4,10.05,18.67,24.38C322.27,125.84,315.92,136.27,302.49,146.71Zm19.89-30.08a16,16,0,0,1,5.55-11.82l6,11.82-5.81,11.82A15.83,15.83,0,0,1,322.38,116.63Zm62.44,7.8c.6,1.31.28,2.72-1,4.34-10.45,13.44-20.87,19.8-31,18.89-14.26-1.28-23.26-16.92-24.22-18.64l5.48-11.14a12.73,12.73,0,0,0,25.39-.89h.05C362,117.14,382.12,118.54,384.82,124.43Zm-50-7.79a12,12,0,1,1,12,12A12,12,0,0,1,334.82,116.64Zm24.76-.4h-.06a12.72,12.72,0,0,0-25.38-.83l-5.66-11.17c1-1.75,10.06-17.4,24.38-18.67,10.12-.9,20.54,5.46,31,18.89,1.26,1.62,1.58,3,1,4.34C382.12,114.69,362,116.09,359.58,116.24Z"/><path class="cls-1" d="M150.85,142.6a16,16,0,0,0,25.3-.19c1.25-.68,17.78-9.94,19.13-24.85.93-10.36-5.52-21-19.18-31.63-1.83-1.42-3.55-1.78-5.11-1.07-4.83,2.22-6.78,14.5-7.5,21.42-.73-6.92-2.68-19.2-7.51-21.42-1.56-.71-3.28-.35-5.11,1.07-13.64,10.62-20.09,21.26-19.17,31.65C133,132.57,149.61,141.92,150.85,142.6ZM163.5,148a15.91,15.91,0,0,1-11.81-5.55l11.81-6,11.82,5.8A15.78,15.78,0,0,1,163.5,148Zm0-36.41a12,12,0,1,1-12,12A12,12,0,0,1,163.51,111.57Zm7.8-26c1.29-.59,2.71-.27,4.33,1,13.45,10.46,19.8,20.88,18.9,31-1.29,14.25-16.92,23.26-18.65,24.21l-11.14-5.47a12.73,12.73,0,0,0-.89-25.39v0C164,108.34,165.41,88.24,171.31,85.54Zm-20,1c1.62-1.25,3-1.57,4.34-1,5.89,2.7,7.29,22.8,7.44,25.25v0a12.73,12.73,0,0,0-.83,25.39l-11.17,5.66c-1.75-1-17.4-10-18.67-24.38C131.55,107.39,137.9,97,151.33,86.52Z"/><path class="cls-1" d="M452.09,60.15a8.93,8.93,0,1,0-8.93-8.93,9.22,9.22,0,0,0,.38,2.59C364.28,83.16,271.18,81.58,207,75.08,141.19,68.42,91.55,55.36,85.82,53.82a9,9,0,1,0-.25.7c5.48,1.48,55.27,14.61,121.34,21.3a751.55,751.55,0,0,0,75.75,4q20.76,0,40.47-1.29c45.05-3,85.65-11,120.66-24A9,9,0,0,0,452.09,60.15ZM77.28,59.4a8.18,8.18,0,1,1,8.18-8.18A8.19,8.19,0,0,1,77.28,59.4ZM452.09,43a8.18,8.18,0,1,1-8.18,8.18A8.19,8.19,0,0,1,452.09,43Z"/><path class="cls-1" d="M497.75,104.19l-.36-.26-6.05,12.3H397.69V117h93.66l6.23,12.29.35-.26A16.42,16.42,0,0,0,504,116.6C504,108.7,497.81,104.23,497.75,104.19Zm.09,23.93L492,116.6l5.66-11.53a14.84,14.84,0,0,1,.18,23.05Z"/><path class="cls-1" d="M64.34,33.81a2.54,2.54,0,0,0,.23.22h0c.57.16,58.09,16,135.81,23.9a838.9,838.9,0,0,0,84.44,4.43c15.42,0,30.48-.48,45.1-1.44C380.3,57.62,425.67,48.57,464.79,34h0l0,0h0l.2-.18c1.87-1.3,14.61-9.72,26.11-5.85l.24-.7c-9.37-3.16-19.48,1.56-24.24,4.34,3.67-4.15,10.25-13.09,9-22.86l-.74.09c1.51,11.94-9.08,22.69-10.85,24.4a.85.85,0,0,0-.17.14C376,66.2,272.08,64.44,200.47,57.19,125.06,49.55,68.68,34.38,65,33.37a1.07,1.07,0,0,0-.16-.14C63,31.52,52.45,20.78,54,8.84l-.74-.09c-1.23,9.77,5.35,18.71,9,22.85C57.46,28.83,47.35,24.11,38,27.26l.24.71C49.72,24.1,62.47,32.52,64.34,33.81Z"/><path class="cls-1" d="M121.81,117v-.75H28.25L22,104l-.36.26a16.37,16.37,0,0,0-6.06,12.41c0,7.89,6.19,12.36,6.25,12.41l.36.25L28.28,117ZM22,128.16a14.83,14.83,0,0,1-.17-23l5.84,11.53Z"/><path class="cls-1" d="M445.92,192.24A8.93,8.93,0,1,0,437.63,180c-35-13-75.61-21-120.67-24-36.16-2.37-75.26-1.47-116.21,2.68C134.68,165.41,84.88,178.54,79.41,180a8.71,8.71,0,1,0,.25.7c5.73-1.54,55.37-14.6,121.18-21.27,64.18-6.5,157.27-8.07,236.54,21.28a8.93,8.93,0,0,0,8.54,11.51Zm-374.8-.74a8.18,8.18,0,1,1,8.18-8.18A8.19,8.19,0,0,1,71.12,191.5Zm374.8-16.36a8.18,8.18,0,1,1-8.18,8.18A8.19,8.19,0,0,1,445.92,175.14Z"/><path class="cls-1" d="M458.86,200.71l-.2-.18v0h0c-39.11-14.54-84.49-23.58-134.86-26.88-40.31-2.65-83.89-1.64-129.54,3C116.5,184.48,59,200.34,58.41,200.5h0l-.23.22c-1.86,1.3-14.61,9.72-26.11,5.85l-.24.7c9.37,3.16,19.48-1.56,24.25-4.34-3.67,4.15-10.25,13.09-9,22.86l.74-.1C46.28,213.76,56.87,203,58.65,201.3l.15-.13c3.72-1,60.09-16.18,135.51-23.82,71.6-7.26,175.49-9,263.9,23.79a1.22,1.22,0,0,0,.17.15c1.78,1.71,12.36,12.45,10.86,24.39l.74.1c1.23-9.77-5.35-18.71-9-22.86,4.77,2.78,14.88,7.5,24.25,4.34l-.24-.71C473.47,210.43,460.72,202,458.86,200.71Z"/></svg>