<svg id="Capa_1" data-name="Capa 1" xmlns="http://www.w3.org/2000/svg" xmlns:xlink="http://www.w3.org/1999/xlink" viewBox="0 0 407.11 321.84"><defs><style>.cls-1{fill:none;}.cls-2{clip-path:url(#clip-path);}.cls-3{fill:#f26b6b;}.cls-4{fill:#f2e8dc;}</style><clipPath id="clip-path"><rect class="cls-1" x="75.82" y="172.05" width="258.48" height="67.54"/></clipPath></defs><title>opón</title><g class="cls-2"><ellipse class="cls-3" cx="208.98" cy="174.8" rx="119.84" ry="64.8"/></g><path class="cls-4" d="M134.76,114.89A28.26,28.26,0,0,0,120.21,111a27.84,27.84,0,0,0-14.47,3.85,29.14,29.14,0,0,0-10.32,10.4,29.4,29.4,0,0,0,0,29.09,28.31,28.31,0,0,0,10.32,10.1,29.08,29.08,0,0,0,39.41-10.32,28.92,28.92,0,0,0,0-28.87A28.93,28.93,0,0,0,134.76,114.89Zm7.7,38a26.61,26.61,0,0,1-9.3,9.38,24.77,24.77,0,0,1-13,3.49,25.11,25.11,0,0,1-13-3.49,25.72,25.72,0,0,1-12.73-22.54,25.21,25.21,0,0,1,3.35-12.51,27.56,27.56,0,0,1,9.16-9.74,23.75,23.75,0,0,1,13.23-3.78,24.37,24.37,0,0,1,13,3.56,27.23,27.23,0,0,1,9.3,9.45,26.29,26.29,0,0,1,0,26.18Z"/><polygon class="cls-4" points="294.38 42.29 291.63 40.99 249.84 100.48 252.22 101.61 294.38 42.29"/><polygon class="cls-4" points="259.28 103.86 256.48 102.68 273.07 31.9 275.49 32.92 259.28 103.86"/><path class="cls-4" d="M265.88,114.82A28.17,28.17,0,0,0,251.33,111a27.69,27.69,0,0,0-14.46,3.85,29.08,29.08,0,0,0-10.33,10.4,29.38,29.38,0,0,0,0,29.08,28.21,28.21,0,0,0,10.33,10.11,29.06,29.06,0,0,0,39.4-10.33,28.9,28.9,0,0,0,0-28.86A28.93,28.93,0,0,0,265.88,114.82Zm7.7,38a26.61,26.61,0,0,1-9.3,9.38,24.77,24.77,0,0,1-12.95,3.49,25.11,25.11,0,0,1-13-3.49,25.72,25.72,0,0,1-12.73-22.54,25.18,25.18,0,0,1,3.35-12.51,27.47,27.47,0,0,1,9.16-9.74,23.76,23.76,0,0,1,13.23-3.79,24.29,24.29,0,0,1,12.95,3.57,27.06,27.06,0,0,1,9.3,9.45,25.05,25.05,0,0,1,3.49,13A25.32,25.32,0,0,1,273.58,152.78Z"/><path class="cls-4" d="M320.32,116.2q-4.57-4.58-12.29-4.58a26.85,26.85,0,0,0-15,4.44,21.48,21.48,0,0,0-8.75,11.29l-.48-14.71h-2.18v55h2.9V135.76a20,20,0,0,1,3.28-11.41,22.33,22.33,0,0,1,8.58-7.57,24.9,24.9,0,0,1,11.41-2.69q6.84.3,10.55,4.29a14.5,14.5,0,0,1,3.85,9.82v39.41h2.91v-39.7A16.36,16.36,0,0,0,320.32,116.2Z"/><path class="cls-4" d="M208.58,114.62c-5.91-3.5-12.94-3.19-19.57-3.33-2.71,0-5.44-.08-8.15-.2a34.6,34.6,0,0,0-8.2.24A28.65,28.65,0,0,0,162,115.71a27.89,27.89,0,0,0-10.14,12L151.77,112H149V226.8h2.91V151.35a27.88,27.88,0,0,0,2.84,4.85,28.58,28.58,0,0,0,7,6.77,27.53,27.53,0,0,0,8.73,4.07c4.37,1.11,9.16.49,13.62.47q4.32,0,8.64,0a46.37,46.37,0,0,0,8.25-.25,24.5,24.5,0,0,0,7.47-3.17,28,28,0,0,0,8.84-7.94c.52-.72,1-1.46,1.48-2.24a27.71,27.71,0,0,0,3.86-14.47,28.14,28.14,0,0,0-3.86-14.54A28.65,28.65,0,0,0,208.58,114.62Zm-30.92,50.75A24.83,24.83,0,0,1,164.93,162a26.66,26.66,0,0,1-8.53-7.87c-.27-.38-.53-.76-.78-1.15a24,24,0,0,1-3.7-12.51v-1.45a24.62,24.62,0,0,1,3.49-12.94,26.48,26.48,0,0,1,9.38-9.31,25,25,0,0,1,13-3.49,24.64,24.64,0,0,1,12.94,3.49,26.43,26.43,0,0,1,9.31,9.45,25.7,25.7,0,0,1,3.49,13.23,26.5,26.5,0,0,1-.76,6.36,24.42,24.42,0,0,1-2.73,6.66,26.56,26.56,0,0,1-9.31,9.38A24.91,24.91,0,0,1,177.66,165.37Zm38.63-12.87c-.27.45-.54.88-.83,1.3a26.4,26.4,0,0,1-8.48,8.08,24.92,24.92,0,0,1-13.09,3.49,27.33,27.33,0,0,1-3.54-.24c.65-.31,1.29-.64,1.92-1A28.09,28.09,0,0,0,202.6,154a26.85,26.85,0,0,0,3-7.25,29.81,29.81,0,0,0,.87-7.22,28.23,28.23,0,0,0-3.85-14.54,28.67,28.67,0,0,0-10.26-10.32c-.64-.38-1.31-.73-2-1.05a26.13,26.13,0,0,1,3.68-.26A24.64,24.64,0,0,1,207,116.8a26.43,26.43,0,0,1,9.31,9.45,25.8,25.8,0,0,1,3.49,13.23A25.12,25.12,0,0,1,216.29,152.5Z"/><polygon class="cls-4" points="151.92 230.91 149.01 230.91 149.01 172.05 151.92 172.05 151.92 230.81 151.92 230.91"/><path class="cls-4" d="M151.92,231.79l-2.91-.88a2,2,0,0,1,.17-.27l2.74.27"/><path class="cls-4" d="M177.72,192.82a.5.5,0,0,1-.3.24c-1.93,7.09-5.85,10.54-12.87,12.49a6.85,6.85,0,0,0-1-1.36c6.39-1.6,10.36-4.89,11.84-10.33H159.85v-1.6H176.1l.24-.14Zm-2.2-5H162.13v-1.55h13.39Z"/><path class="cls-4" d="M182,194.18h19.61v1.67H182.87a1.08,1.08,0,0,1-.75.45Z"/><path class="cls-4" d="M209.18,190.19a66.28,66.28,0,0,1,6.67,3.38,45.12,45.12,0,0,0,4.22-8.19l2.31.94c-.1.21-.43.33-.85.28a55,55,0,0,1-4.18,7.84,44.76,44.76,0,0,1,5.12,3.62l-1.13,1.48a43.47,43.47,0,0,0-5-3.67,38.31,38.31,0,0,1-9.93,9.61,7.17,7.17,0,0,0-1.34-1.17,38.36,38.36,0,0,0,9.84-9.28,65.25,65.25,0,0,0-6.62-3.45Z"/><path class="cls-4" d="M228.82,187.09a29.15,29.15,0,0,1,7,3.2l-.89,1.48a29.74,29.74,0,0,0-6.86-3.27Zm-.1,16.28c8.34-2.59,13.88-7.26,16.7-13.76a9.81,9.81,0,0,0,1.52,1C244,197,238.28,202,230.32,204.66a.82.82,0,0,1-.33.54Z"/><path class="cls-4" d="M254,191.18v1.2c0,4.06-.33,10-2.77,14a5.54,5.54,0,0,0-1.38-.8c2.37-3.87,2.58-9.3,2.58-13.17v-6.63h17.33v5.43Zm9.05,13h8.36v1.34h-18v-1.34h8.1V201.7h-6.15v-1.32h6.15v-2c-2.33.1-4.46.17-6.08.21a.43.43,0,0,1-.36.31l-.54-1.64,2.75-.05a26.5,26.5,0,0,0,1.81-2.94h-5v-1.33H270.9v1.33h-10a34,34,0,0,1-1.9,2.92c2.35-.07,5-.12,7.63-.22a28.71,28.71,0,0,0-2.46-1.71l1.17-.77a25,25,0,0,1,5.08,3.92l-1.27.87a12.4,12.4,0,0,0-1.15-1.18l-4.51.21c-.07.1-.21.14-.42.17v1.92h6.38v1.32H263Zm5.14-17.11H254v2.72h14.19Z"/></svg>