<svg id="Capa_1" data-name="Capa 1" xmlns="http://www.w3.org/2000/svg" viewBox="0 0 153.36 373.87"><defs><style>.cls-1{fill:#404040;}.cls-2{fill:#f2e8dc;}</style></defs><title>logo_opon_vertical</title><polygon class="cls-1" points="38.35 14.43 38.35 304.08 47.11 334.57 55.88 365.06 64.65 334.57 73.41 304.08 82.18 334.57 90.94 365.06 99.71 334.57 108.47 304.08 108.47 14.43 38.35 14.43"/><path class="cls-2" d="M69.5,30.8V48.16H67.39V30.8Zm-1,0H72.1a6.93,6.93,0,0,1,3,.63,5.3,5.3,0,0,1,2.11,1.8,5.31,5.31,0,0,1,0,5.54,5.1,5.1,0,0,1-2.11,1.81,6.93,6.93,0,0,1-3,.64H68.55V39.36H72.1a4.71,4.71,0,0,0,2-.4,3.12,3.12,0,0,0,1.34-1.14,3.65,3.65,0,0,0,0-3.62,3.06,3.06,0,0,0-1.34-1.14,4.56,4.56,0,0,0-2-.4H68.55Zm4.29,8.8L79,48.16h-2.6l-6-8.56Z"/><path class="cls-2" d="M69.42,66.4l-.2.45L66.64,73H64.29l8.06-18.22L80.4,73H78.05l-2.53-6-.2-.5-3-7Zm-.87-.64h7.69l.74,2H67.81Z"/><path class="cls-2" d="M65.4,97.74H63.3l2.1-18.22,6.95,12.57,6.94-12.57,2.1,18.22h-2.1L78,86,72.35,96.13,66.69,86Z"/><path class="cls-2" d="M69.62,105.18v17.35H67.51V105.18Zm-.94,0h8.75v2H68.68Zm0,6.94h8.25v2H68.68Zm0,8.43h8.75v2H68.68Z"/><path class="cls-2" d="M80,130V148.2L66.83,134.41v12.92H64.72V129.1l13.14,13.79V130Z"/><path class="cls-2" d="M67.57,169.64V187h-2.1V169.64Zm-.94,6.94h11.9v2H66.63Zm12.6-6.94V187H77.12V169.64Z"/><path class="cls-2" d="M64.2,199.58a8.49,8.49,0,0,1,4.65-4.71,9.22,9.22,0,0,1,7,0,8.53,8.53,0,0,1,2.79,1.88,8.37,8.37,0,0,1,1.85,2.83,9.74,9.74,0,0,1,0,7,8.41,8.41,0,0,1-1.85,2.84,8.53,8.53,0,0,1-2.79,1.88,9.22,9.22,0,0,1-7,0,8.46,8.46,0,0,1-4.65-4.72,9.88,9.88,0,0,1,0-7Zm2.43,7a6.52,6.52,0,0,0,11.43,0,7.55,7.55,0,0,0,0-7,6.55,6.55,0,0,0-2.33-2.43,6.44,6.44,0,0,0-3.38-.89,6.36,6.36,0,0,0-5.72,3.32,7.63,7.63,0,0,0,0,7Z"/><path class="cls-2" d="M68.55,219.22v11.66a4.17,4.17,0,0,0,1,2.87,4.21,4.21,0,0,0,5.65,0,4.12,4.12,0,0,0,1-2.87V219.22h2.11v11.66a6.8,6.8,0,0,1-.41,2.38,5.38,5.38,0,0,1-1.19,1.88,5.61,5.61,0,0,1-1.87,1.24,6.34,6.34,0,0,1-2.43.45,6.26,6.26,0,0,1-2.43-.45,5.51,5.51,0,0,1-1.87-1.24,5.27,5.27,0,0,1-1.2-1.88,6.8,6.8,0,0,1-.4-2.38V219.22Z"/><path class="cls-2" d="M69.43,258a5.08,5.08,0,0,0,1.48,1.24,3.77,3.77,0,0,0,1.86.45,3.2,3.2,0,0,0,2.23-.77,2.54,2.54,0,0,0,.84-2,2.94,2.94,0,0,0-.54-1.86,4.15,4.15,0,0,0-1.43-1.13,16.63,16.63,0,0,0-1.87-.78c-.43-.15-.91-.34-1.44-.58a7.63,7.63,0,0,1-1.51-.92,4.59,4.59,0,0,1-1.18-1.37,4,4,0,0,1-.46-2,4.23,4.23,0,0,1,.65-2.31,4.46,4.46,0,0,1,1.78-1.6,5.63,5.63,0,0,1,2.61-.58,5.44,5.44,0,0,1,2.46.53,6.14,6.14,0,0,1,1.8,1.37,7.09,7.09,0,0,1,1.17,1.74l-1.82,1.05a6.77,6.77,0,0,0-.81-1.27,4.14,4.14,0,0,0-1.21-1,3.5,3.5,0,0,0-1.72-.39,2.75,2.75,0,0,0-2.06.68,2.15,2.15,0,0,0-.64,1.52,2.47,2.47,0,0,0,.37,1.33,3.6,3.6,0,0,0,1.25,1.14,12.71,12.71,0,0,0,2.4,1.06,11.84,11.84,0,0,1,1.46.64,6.29,6.29,0,0,1,1.42,1,5,5,0,0,1,1.08,1.47,4.58,4.58,0,0,1,.42,2,4.75,4.75,0,0,1-.43,2.06,4.7,4.7,0,0,1-1.19,1.56,5.4,5.4,0,0,1-1.71,1,5.84,5.84,0,0,1-2,.35,5.63,5.63,0,0,1-2.61-.61A7.05,7.05,0,0,1,68,259.4a9.71,9.71,0,0,1-1.47-2.14l1.68-1.14A14.23,14.23,0,0,0,69.43,258Z"/><path class="cls-2" d="M69.62,268.81v17.35H67.51V268.81Zm-.94,0h8.75v2H68.68Zm0,6.94h8.25v2H68.68Zm0,8.43h8.75v2H68.68Z"/></svg>