<svg id="Capa_1" data-name="Capa 1" xmlns="http://www.w3.org/2000/svg" viewBox="0 0 533.8 509.76"><defs><style>.cls-1{fill:#f26b6b;}</style></defs><title>logo_fb_salmon</title><path class="cls-1" d="M62.5,417V92.8a17.08,17.08,0,0,0,.71-2.24c2.24-13.19,9-23.53,19.73-31.37,6.54-4.79,14.11-7,21.87-8.71H429a10.51,10.51,0,0,0,1.85.67c24,4.15,40.43,23.46,40.44,48.08q.09,155.64-.09,311.27a52.86,52.86,0,0,1-2.63,16.41c-6.69,20-24.78,32.36-46.83,32.36q-154.83,0-309.67,0c-1.06,0-2.13,0-3.19,0q-22.65-1.14-36.63-19C66.83,433.37,64.3,425.32,62.5,417Zm270,10.38h4.41q41.93,0,83.83,0c12.42,0,18.59-6.19,18.59-18.66V101.29c0-12.75-6.09-18.87-18.77-18.87q-153.69,0-307.38,0c-12.68,0-18.78,6.12-18.78,18.87q0,153.69,0,307.38c0,12.47,6.16,18.67,18.57,18.67q82.83,0,165.67,0c1.29,0,2.58-.1,3.93-.16V297H235.18V247.58h47.7c0-1.88,0-3.32,0-4.77,0-11.05-.28-22.11.2-33.13a73,73,0,0,1,55.14-67.4c16.52-4.16,33.36-1.86,50.07-2.25.2,0,.4.31.55.44v48.94h-4.1c-9.45,0-18.9-.14-28.34.05-12.51.25-22.53,8.15-23.46,20.11-1,12.52-.22,25.17-.22,38.17h57.13c-2.75,16.67-5.43,32.9-8.18,49.53H332.53Z"/></svg>