<svg id="Capa_1" data-name="Capa 1" xmlns="http://www.w3.org/2000/svg" viewBox="0 0 533.8 509.76"><defs><style>.cls-1{fill:#f26b6b;}</style></defs><title>logo_google_salmon</title><path class="cls-1" d="M264.69,459.28c-2.16-2.07-4.69-3.89-6.44-6.27C220,401.06,184,347.63,154.17,290.28a423.5,423.5,0,0,1-24.89-57.74c-11-32.1-8.67-63.62,4.87-94,21.34-47.92,58.4-77.08,110.12-86,76.74-13.22,151,39.86,165.2,116.35,5.19,28-.05,54.07-10.39,79.8-15.67,39-36.15,75.49-59,110.57-20.68,31.72-42.62,62.62-64.13,93.8-1.67,2.41-4.27,4.19-6.44,6.26ZM267,271.88a76.62,76.62,0,1,0,.21-153.24c-42.11-.09-76.7,34.43-76.73,76.57A76.63,76.63,0,0,0,267,271.88Z"/></svg>