<svg id="Capa_1" data-name="Capa 1" xmlns="http://www.w3.org/2000/svg" viewBox="0 0 533.8 509.76"><defs><style>.cls-1{fill:#f2e8dc;}</style></defs><title>logo_ig_claro</title><path class="cls-1" d="M469.81,172.9V336.6c-.22,1.42-.5,2.83-.65,4.26-.86,8-1.27,16.08-2.61,24-4.32,25.53-15.22,47.67-34.82,65.06-21.25,18.85-46.83,26.37-74.5,28.24-9.61.65-19.23,1.08-28.85,1.6H206c-2.49-.21-5-.56-7.47-.63-16.28-.41-32.54-1.05-48.45-5-33.47-8.21-58.37-27.26-73.19-58.64C67.7,376,64.92,355,64.7,333.72c-.46-43.81-.83-87.63-.66-131.45.08-20,.28-40,4.59-59.67,7.64-34.82,26.64-60.95,59.2-76.4,19.26-9.14,40-11.85,61-12.35,56.11-1.33,112.23-2,168.32.73,16.34.79,32.32,4,47.31,10.74,37.24,16.88,56.82,46.79,62.94,86.38C468.47,158.72,469,165.83,469.81,172.9ZM266.68,423.82l0-.63c10.86,0,21.72.32,32.57-.06,23.13-.83,46.43-.55,69.33-3.43,31.28-3.95,52.44-22,60.09-53.13,3.09-12.58,4.14-25.9,4.36-38.92q1.05-61.36.61-122.75a415.2,415.2,0,0,0-2.94-49.11c-4.12-32.82-24.49-55-57-61.49-13.9-2.78-28.36-3.61-42.59-3.81Q274,89.67,216.79,90.3c-17.82.21-35.85.66-53.39,3.49-30.57,4.93-50.89,23-57.79,53.62-3.08,13.68-4,28-4.27,42.13q-1.12,49.46-.6,98.92c.25,22.75.83,45.58,3.08,68.19,2.28,23,13.29,41.72,33.76,53.73,12.82,7.52,27.1,10.65,41.77,11.17C208.45,422.59,237.57,423.09,266.68,423.82Z"/><path class="cls-1" d="M267.11,360.9c-57.74-.13-104.64-47.13-104.47-104.68.18-57.77,47.24-104.63,104.78-104.31a104.39,104.39,0,0,1,104.2,104.42C371.68,314,324.69,361,267.11,360.9ZM199.46,256.36a67.71,67.71,0,1,0,67.62-67.7A67.51,67.51,0,0,0,199.46,256.36Z"/><path class="cls-1" d="M400.1,147.47a24.34,24.34,0,1,1-24.77-24A24.24,24.24,0,0,1,400.1,147.47Z"/></svg>