<svg id="Capa_1" data-name="Capa 1" xmlns="http://www.w3.org/2000/svg" viewBox="0 0 445.23 124.83"><defs><style>.cls-1{fill:#404040;}.cls-2{fill:#f2e8dc;}</style></defs><title>logo_ramenhouse</title><polygon class="cls-1" points="50.74 97.7 340.39 97.7 370.88 88.94 401.37 80.17 370.88 71.41 340.39 62.64 370.88 53.87 401.37 45.11 370.88 36.34 340.39 27.58 50.74 27.58 50.74 97.7"/><path class="cls-2" d="M68,48.36V75.93H64.68V48.36Zm-1.5,0h5.63a11,11,0,0,1,4.78,1,8.19,8.19,0,0,1,3.35,2.85,8.43,8.43,0,0,1,0,8.8,8.11,8.11,0,0,1-3.35,2.88,11,11,0,0,1-4.78,1H66.53V62h5.63a7.38,7.38,0,0,0,3.13-.63,5,5,0,0,0,2.12-1.81,5.75,5.75,0,0,0,0-5.75A4.94,4.94,0,0,0,75.29,52a7.38,7.38,0,0,0-3.13-.63H66.53Zm6.81,14,9.84,13.59H79.05L69.6,62.34Z"/><path class="cls-2" d="M91.92,65.53l-.31.71-4.1,9.69H83.77L96.57,47l12.8,28.94h-3.74l-4-9.45-.31-.79-4.73-11.1Zm-1.37-1h12.2l1.18,3.15H89.36Z"/><path class="cls-2" d="M114.49,75.93h-3.35L114.49,47l11,20,11-20,3.35,28.94h-3.35l-2-18.63-9,16.07-9-16.07Z"/><path class="cls-2" d="M148,48.36V75.93h-3.35V48.36Zm-1.5,0h13.9v3.15h-13.9Zm0,11h13.11v3.15H146.46Zm0,13.39h13.9v3.15h-13.9Z"/><path class="cls-2" d="M190.48,48.36V77.3L169.62,55.41V75.93h-3.35V47l20.87,21.89V48.36Z"/><path class="cls-2" d="M211.94,48.36V75.93H208.6V48.36Zm-1.49,11h18.9v3.15h-18.9Zm20-11V75.93H227.1V48.36Z"/><path class="cls-2" d="M236.22,56.53a13.34,13.34,0,0,1,2.93-4.48,13.81,13.81,0,0,1,4.45-3,14.88,14.88,0,0,1,11.13,0,13.83,13.83,0,0,1,4.43,3,13.65,13.65,0,0,1,2.93,4.48,15.62,15.62,0,0,1,0,11.21,13.46,13.46,0,0,1-7.36,7.5,14.88,14.88,0,0,1-11.13,0,13.78,13.78,0,0,1-4.45-3,13.47,13.47,0,0,1-2.93-4.51,15.62,15.62,0,0,1,0-11.21Zm3.86,11.17a10.36,10.36,0,0,0,18.15,0,12,12,0,0,0,0-11.11,10.37,10.37,0,0,0-18.15,0,12,12,0,0,0,0,11.11Z"/><path class="cls-2" d="M271,48.36V66.87a6.66,6.66,0,0,0,1.53,4.57,6.69,6.69,0,0,0,9,0,6.66,6.66,0,0,0,1.53-4.57V48.36h3.35V66.87a10.49,10.49,0,0,1-.65,3.78,8.29,8.29,0,0,1-1.89,3,8.72,8.72,0,0,1-3,2,10.85,10.85,0,0,1-7.72,0,8.62,8.62,0,0,1-3-2,8.29,8.29,0,0,1-1.89-3,10.49,10.49,0,0,1-.65-3.78V48.36Z"/><path class="cls-2" d="M295.52,70.49a8.14,8.14,0,0,0,2.34,2,6.11,6.11,0,0,0,3,.71A5.08,5.08,0,0,0,304.36,72a4,4,0,0,0,1.34-3.11,4.62,4.62,0,0,0-.87-3,6.36,6.36,0,0,0-2.26-1.8,27.54,27.54,0,0,0-3-1.24,24.31,24.31,0,0,1-2.29-.92,11.94,11.94,0,0,1-2.4-1.46A7.15,7.15,0,0,1,293,58.29a6.4,6.4,0,0,1-.73-3.19,6.68,6.68,0,0,1,1-3.66,7.07,7.07,0,0,1,2.84-2.54A8.94,8.94,0,0,1,300.3,48a8.51,8.51,0,0,1,3.92.85A9.51,9.51,0,0,1,307.08,51a11.51,11.51,0,0,1,1.85,2.78l-2.88,1.65a11.23,11.23,0,0,0-1.3-2,6.57,6.57,0,0,0-1.9-1.61,5.55,5.55,0,0,0-2.74-.63,4.32,4.32,0,0,0-3.27,1.08,3.46,3.46,0,0,0-1,2.42,3.92,3.92,0,0,0,.6,2.11,5.69,5.69,0,0,0,2,1.81,20.66,20.66,0,0,0,3.8,1.68,18.83,18.83,0,0,1,2.33,1,10.51,10.51,0,0,1,2.26,1.59,7.73,7.73,0,0,1,1.71,2.33,7.22,7.22,0,0,1,.67,3.25,7.67,7.67,0,0,1-.68,3.26,7.28,7.28,0,0,1-1.9,2.48,8.65,8.65,0,0,1-2.71,1.58,9.43,9.43,0,0,1-7.32-.41,11.36,11.36,0,0,1-3.35-2.56,15.62,15.62,0,0,1-2.35-3.41l2.68-1.81A20.26,20.26,0,0,0,295.52,70.49Z"/><path class="cls-2" d="M317.43,48.36V75.93h-3.35V48.36Zm-1.49,0h13.89v3.15H315.94Zm0,11H329v3.15h-13.1Zm0,13.39h13.89v3.15H315.94Z"/></svg>