<svg id="Capa_1" data-name="Capa 1" xmlns="http://www.w3.org/2000/svg" viewBox="0 0 512.66 510.27"><defs><style>.cls-1{fill:#f26b6b;}</style></defs><title>patron_salmon</title><path class="cls-1" d="M12.68,88.88c1.35,2.68,19.15,36.73,48.84,39.86A41.88,41.88,0,0,0,66,129c19.41,0,39.53-13.2,59.88-39.32,2.87-3.68,3.6-7.13,2.16-10.26-4.45-9.73-29.21-13.64-43.1-15.09,13.88-1.45,38.64-5.37,43.09-15.09,1.44-3.14.72-6.59-2.15-10.27C104.63,11.62,83.36-1.24,62.67.67,35.54,3.2,17.74,31,13.55,38.18l-.36-.73-.74.54C12.33,38.08,0,47.26,0,63.49,0,78.74,11.2,87.76,12.68,88.88Zm114-8.84c1.19,2.61.55,5.44-2,8.68-21.57,27.68-42.78,40.64-63,38.5-28.41-3-45.74-35.33-47.55-38.85l10.72-21.8a25.56,25.56,0,0,0,51-1.47C80.33,65.36,121.2,68.14,126.64,80ZM26.33,63.4a23.5,23.5,0,1,1,0,.92c0-.24,0-.48,0-.72l.06-.11ZM62.82,2.2C82.94.3,103.76,13,124.67,39.89c2.52,3.24,3.16,6.08,2,8.69-5.46,11.9-46.32,14.67-50.76,14.93A25.56,25.56,0,0,0,25,60.81l-10.64-21C17.25,34.69,35.07,4.78,62.82,2.2ZM12.63,39.83l0,.05.12.06L24.66,63.5,13,87.19C10.4,85,1.54,76.71,1.54,63.49S10.05,42,12.63,39.83Z"/><path class="cls-1" d="M497.72,421.54c-1.31-2.6-18.06-34.65-46.11-39.48a34.53,34.53,0,0,0,18.57-11.88c2.68-1.35,36.73-19.15,39.87-48.83,2.19-20.79-11-42.44-39.09-64.36-3.68-2.86-7.13-3.59-10.26-2.16-9.73,4.45-13.65,29.21-15.1,43.1-1.45-13.88-5.36-38.63-15.09-43.09-3.13-1.43-6.59-.71-10.27,2.15C392.91,278.24,380,299.51,382,320.2c2.53,27.12,30.29,44.92,37.51,49.11l-.73.36.54.74A34.47,34.47,0,0,0,437.57,382c-17.28,2.72-35.08,15.7-53.05,38.77-2.87,3.68-3.59,7.13-2.16,10.26,4.45,9.73,29.21,13.64,43.1,15.1-13.88,1.44-38.63,5.36-43.09,15.08-1.44,3.14-.71,6.59,2.15,10.27,19.87,25.55,39.75,38.47,59.16,38.47,1.35,0,2.71-.06,4.06-.19,27.12-2.53,44.92-30.29,49.11-37.51l.37.73.73-.54c.12-.09,12.45-9.27,12.45-25.5C510.4,431.68,499.2,422.66,497.72,421.54ZM461.34,256.23c2.6-1.19,5.44-.54,8.67,2,27.68,21.57,40.64,42.76,38.51,63-3,28.4-35.33,45.73-38.85,47.54L447.86,358a25.56,25.56,0,0,0-1.47-51C446.66,302.54,449.44,261.67,461.34,256.23ZM444.78,356.49l-.08,0a23.26,23.26,0,1,1,.92.05c-.25,0-.49,0-.73,0Zm-61.29-36.44c-1.88-20.13,10.81-40.94,37.69-61.85,3.24-2.51,6.08-3.15,8.69-2,11.9,5.45,14.67,46.31,14.94,50.75a25.55,25.55,0,0,0-2.71,50.85l-21,10.64C416,365.61,386.07,347.79,383.49,320.05Zm37.62,50.18.06,0,.07-.12,23.55-11.94,23.69,11.65c-2.16,2.61-10.48,11.47-23.69,11.47S423.33,372.81,421.11,370.23Zm-37.35,60.15c-1.19-2.61-.55-5.44,2-8.68,21.57-27.67,42.78-40.61,63-38.5,28.41,3,45.74,35.33,47.55,38.85l-10.72,21.8a25.56,25.56,0,0,0-51,1.47C430.06,445.06,389.2,442.28,383.76,430.38ZM484.07,447a23.27,23.27,0,1,1,.05-.93c0,.25,0,.49,0,.73l-.05.11Zm-36.48,61.2c-20.12,1.89-40.95-10.81-61.86-37.69-2.52-3.24-3.16-6.08-2-8.69,5.45-11.9,46.31-14.67,50.75-14.93a25.56,25.56,0,0,0,50.86,2.7l10.64,21C493.16,475.73,475.33,505.64,447.59,508.22Zm50.18-37.62,0-.06-.12-.06-11.93-23.56,11.64-23.69c2.61,2.17,11.47,10.48,11.47,23.7S500.34,468.39,497.77,470.6Z"/><path class="cls-1" d="M382.83,448.55c2.2-20.79-11-42.44-39.09-64.36-3.67-2.86-7.12-3.59-10.26-2.16-9.73,4.45-13.65,29.21-15.1,43.1C316.94,411.25,313,386.5,303.29,382c-3.13-1.44-6.59-.71-10.27,2.15-27.33,21.26-40.21,42.52-38.28,63.21,2.53,27.12,30.29,44.92,37.51,49.11l-.72.36.53.74c.09.12,9.28,12.45,25.51,12.45,15.25,0,24.27-11.2,25.39-12.68C345.64,496,379.7,478.23,382.83,448.55Zm-65.16,35.19-.1-.05-.09,0a23.26,23.26,0,1,1,.92,0C318.16,483.78,317.92,483.75,317.67,483.74Zm-61.4-36.49c-1.87-20.13,10.81-40.94,37.7-61.85,3.24-2.51,6.07-3.16,8.68-2,11.91,5.45,14.67,46.31,14.94,50.75a25.55,25.55,0,0,0-2.7,50.85l-21,10.64C288.76,492.81,258.86,475,256.27,447.25Zm61.3,61.27c-13.16,0-21.46-8.51-23.67-11.09l.06,0,.06-.12,23.55-11.93,23.7,11.64C339.1,499.66,330.79,508.52,317.57,508.52Zm24.88-12.6-21.8-10.72a25.56,25.56,0,0,0-1.48-51c.27-4.45,3.05-45.31,14.95-50.76,2.6-1.19,5.44-.55,8.68,2,27.68,21.57,40.63,42.76,38.5,63C378.31,476.78,346,494.11,342.45,495.92Z"/><path class="cls-1" d="M212.15,445.26c13.89-1.44,38.64-5.36,43.1-15.09,1.44-3.13.71-6.58-2.15-10.26-21.26-27.33-42.52-40.2-63.22-38.28-27.12,2.53-44.92,30.29-49.11,37.5l-.37-.72-.73.53a34.29,34.29,0,0,0-12,20.17c-5.12-24.38-30-40.31-36.75-44.24l.72-.37-.53-.73a34.34,34.34,0,0,0-20.17-12c24.38-5.11,40.31-30,44.24-36.75l.37.72.73-.53a34.46,34.46,0,0,0,11.59-18.29C130.61,344.23,143.6,362,166.66,380a11.66,11.66,0,0,0,7,2.87,7.63,7.63,0,0,0,3.22-.72c9.73-4.45,13.65-29.21,15.1-43.09,1.45,13.88,5.36,38.63,15.09,43.09a7.78,7.78,0,0,0,3.23.71,11.64,11.64,0,0,0,7-2.86c23.51-18.29,36.3-36.58,38.19-54.5a34.65,34.65,0,0,0,11.54,17.15c1.35,2.68,19.15,36.73,48.84,39.86a41.88,41.88,0,0,0,4.48.24c19.41,0,39.53-13.21,59.89-39.32,2.86-3.68,3.59-7.13,2.15-10.26-4.45-9.73-29.21-13.65-43.1-15.1,13.89-1.44,38.64-5.36,43.09-15.09,1.44-3.13.72-6.58-2.14-10.26-21.26-27.33-42.52-40.22-63.22-38.28C290,257,272.17,284.72,268,291.94l-.36-.73-.73.53a34.23,34.23,0,0,0-12,20.16c-5.12-24.37-30-40.3-36.76-44.23l.72-.37-.53-.73a34.36,34.36,0,0,0-19.17-11.78c23.82-5.58,39.37-29.87,43.25-36.55l.37.73.73-.54a34.53,34.53,0,0,0,11.58-18.29c2.72,17.29,15.71,35.08,38.78,53.05a11.65,11.65,0,0,0,7,2.87,7.78,7.78,0,0,0,3.23-.71c9.72-4.45,13.64-29.21,15.1-43.1,1.44,13.88,5.36,38.63,15.09,43.09a7.63,7.63,0,0,0,3.23.71,11.64,11.64,0,0,0,7-2.86c23.52-18.28,36.3-36.58,38.2-54.5a34.66,34.66,0,0,0,11.53,17.15c1.36,2.68,19.16,36.73,48.85,39.86a41.84,41.84,0,0,0,4.47.24c19.42,0,39.54-13.2,59.89-39.32,2.87-3.68,3.59-7.13,2.16-10.26-4.45-9.73-29.21-13.65-43.1-15.1,13.88-1.44,38.63-5.36,43.09-15.09,1.44-3.13.71-6.58-2.15-10.26-21.26-27.33-42.52-40.23-63.22-38.28-27.12,2.53-44.92,30.29-49.11,37.5l-.37-.72-.73.53a34.34,34.34,0,0,0-12,20.16c-5.12-24.37-30-40.3-36.75-44.23l.72-.37-.53-.73a34.34,34.34,0,0,0-19.51-11.86c24-5.42,39.69-29.91,43.58-36.62L370,92l.73-.53a34.56,34.56,0,0,0,11.59-18.29c2.72,17.28,15.71,35.07,38.77,53a11.68,11.68,0,0,0,7,2.87,7.73,7.73,0,0,0,3.22-.71c9.73-4.45,13.65-29.21,15.1-43.1,1.45,13.88,5.36,38.63,15.09,43.09a7.64,7.64,0,0,0,3.23.72,11.66,11.66,0,0,0,7-2.87C499.14,105,512,83.71,510.09,63,507.56,35.9,479.8,18.1,472.58,13.91l.73-.36-.54-.74C472.68,12.69,463.5.36,447.26.36,432,.36,423,11.56,421.87,13c-2.59,1.31-34.65,18.06-39.49,46.11a34.43,34.43,0,0,0-11.87-18.57C369.16,37.9,351.36,3.85,321.67.72c-20.79-2.2-42.45,11-64.37,39.08-2.86,3.68-3.59,7.13-2.16,10.26,4.46,9.73,29.22,13.65,43.11,15.1-13.89,1.44-38.64,5.36-43.1,15.09-1.43,3.13-.71,6.58,2.15,10.26,18.1,23.27,36.2,36,53.95,38.12A34.74,34.74,0,0,0,294.65,140c-2.59,1.31-34.64,18.06-39.48,46.11a34.43,34.43,0,0,0-11.88-18.57c-1.3-2.58-17.85-34.21-45.56-39.37a34.59,34.59,0,0,0,18-11.75c2.67-1.35,36.73-19.15,39.87-48.83,2.19-20.79-11-42.44-39.09-64.36C212.85.37,209.4-.36,206.27,1.07c-9.73,4.46-13.65,29.21-15.1,43.1-1.45-13.88-5.36-38.63-15.09-43.09C173-.35,169.49.37,165.81,3.23c-27.33,21.26-40.21,42.52-38.28,63.21,2.53,27.13,30.29,44.92,37.5,49.11l-.72.37.54.73a34.43,34.43,0,0,0,17.66,11.43C165.43,131,147.84,144,130.09,166.76c-2.87,3.68-3.59,7.13-2.16,10.26,4.45,9.73,29.21,13.64,43.1,15.1-13.88,1.44-38.63,5.36-43.09,15.09-1.44,3.13-.72,6.58,2.15,10.26,18,23.12,36,35.85,53.6,38.08a34.83,34.83,0,0,0-16.25,11.24c-2.6,1.31-34.65,18.07-39.49,46.12a34.43,34.43,0,0,0-11.87-18.57c-1.3-2.57-17.71-33.93-45.21-39.3a34.5,34.5,0,0,0,17.66-11.66c2.68-1.35,36.74-19.15,39.87-48.83,2.19-20.79-11-42.44-39.09-64.36-3.68-2.86-7.13-3.59-10.26-2.16-9.73,4.45-13.65,29.21-15.1,43.1C62.5,157.25,58.59,132.5,48.86,128c-3.13-1.44-6.59-.71-10.27,2.15C11.26,151.45-1.62,172.71.31,193.4c2.53,27.12,30.29,44.92,37.51,49.11l-.72.36.53.74A34.51,34.51,0,0,0,54.9,255c-17,3.06-34.41,16-52,38.61C0,297.24-.72,300.69.71,303.82c4.46,9.72,29.22,13.64,43.11,15.09C29.93,320.36,5.18,324.28.72,334c-1.43,3.14-.71,6.59,2.15,10.27,18.29,23.51,36.58,36.3,54.51,38.19A34.58,34.58,0,0,0,40.22,394C37.55,395.35,3.49,413.15.36,442.83c-2.2,20.79,11,42.44,39.08,64.36a11.68,11.68,0,0,0,7,2.87,7.78,7.78,0,0,0,3.23-.71c9.72-4.45,13.64-29.21,15.09-43.1,1.45,13.88,5.37,38.63,15.09,43.09a7.71,7.71,0,0,0,3.24.72,11.65,11.65,0,0,0,7-2.87c23.52-18.29,36.3-36.58,38.2-54.5a34.59,34.59,0,0,0,11.53,17.15c1.36,2.68,19.16,36.73,48.85,39.86a41.56,41.56,0,0,0,4.47.24c19.41,0,39.54-13.21,59.89-39.32,2.86-3.68,3.59-7.13,2.16-10.26C250.81,450.63,226,446.71,212.15,445.26ZM190,383.16c20.13-1.9,40.94,10.8,61.85,37.69,2.52,3.24,3.17,6.08,2,8.68-5.45,11.91-46.31,14.67-50.75,14.94a25.56,25.56,0,0,0-50.87-2.7l-10.63-21C144.46,415.64,162.29,385.74,190,383.16Zm-36.49,61.39.05-.1,0-.09a23.26,23.26,0,1,1-.05.92C153.5,445,153.53,444.8,153.54,444.55Zm39.19-164.11.11.05.08,0a23.26,23.26,0,1,1-.92-.05C192.25,280.4,192.48,280.43,192.73,280.44ZM381.07,333.8c1.2,2.6.55,5.44-2,8.67-21.57,27.68-42.77,40.64-63,38.5-28.41-3-45.74-35.32-47.54-38.84l10.71-21.8a25.56,25.56,0,0,0,51-1.48C334.77,319.12,375.63,321.9,381.07,333.8ZM280.76,317.16a23.5,23.5,0,1,1,0,.92c0-.24,0-.48,0-.73l.06-.1ZM317.25,256c20.14-1.88,40.94,10.81,61.85,37.69,2.52,3.24,3.16,6.08,2,8.68-5.46,11.91-46.31,14.67-50.76,14.94a25.56,25.56,0,0,0-50.86-2.7l-10.63-21C271.68,288.45,289.5,258.54,317.25,256Zm-50.19,37.62,0,.06.12.06,11.94,23.55-11.65,23.69c-2.61-2.16-11.47-10.47-11.47-23.69S264.49,295.79,267.06,293.58Zm-12.93,23.35c1.88,20.13-10.81,40.93-37.69,61.84-3.24,2.52-6.08,3.16-8.69,2-11.9-5.46-14.67-46.31-14.94-50.75a25.56,25.56,0,0,0,2.71-50.86l21-10.63C221.64,271.36,251.55,289.18,254.13,316.93Zm65.81-163.29.11.05.09,0a23.27,23.27,0,1,1-.93-.05C319.46,153.6,319.7,153.63,319.94,153.64ZM508.29,207c1.19,2.6.55,5.44-2,8.67-21.57,27.68-42.77,40.64-63,38.51-28.41-3-45.74-35.33-47.55-38.85l10.72-21.8a25.56,25.56,0,0,0,51-1.47C462,192.32,502.84,195.1,508.29,207ZM408,190.36a23.26,23.26,0,1,1-.05.92c0-.24,0-.48,0-.73l0-.1Zm36.48-61.2c20.12-1.86,40.94,10.81,61.86,37.69,2.51,3.24,3.16,6.08,2,8.69-5.45,11.9-46.32,14.67-50.75,14.93a25.56,25.56,0,0,0-50.86-2.7l-10.64-21C398.9,161.64,416.72,131.74,444.46,129.16Zm-50.18,37.62,0,.06.12.06,11.94,23.56-11.65,23.68c-2.61-2.16-11.47-10.47-11.47-23.69S391.7,169,394.28,166.78Zm-12.93,23.35c1.87,20.13-10.81,40.94-37.7,61.84-3.24,2.52-6.08,3.16-8.68,2-11.91-5.45-14.68-46.31-14.94-50.75a25.56,25.56,0,0,0,2.7-50.86l21-10.63C348.86,144.57,378.76,162.39,381.35,190.13ZM447.16,26.68l.11.05.08,0a23.26,23.26,0,1,1-.92-.05C446.68,26.64,446.92,26.67,447.16,26.68Zm61.4,36.49c1.88,20.13-10.81,40.94-37.69,61.85-3.24,2.51-6.09,3.15-8.69,2-11.9-5.45-14.67-46.31-14.94-50.75A25.55,25.55,0,0,0,450,25.38l21-10.64C476.07,17.61,506,35.43,508.56,63.17ZM447.26,1.9c13.17,0,21.46,8.51,23.67,11.09l-.05,0-.07.12L447.26,25,423.57,13.37C425.73,10.76,434.05,1.9,447.26,1.9ZM383.53,62c3-28.41,35.34-45.74,38.85-47.54l21.81,10.72a25.56,25.56,0,0,0,1.47,51c-.27,4.45-3.05,45.31-15,50.76-2.6,1.19-5.44.54-8.67-2C394.36,103.45,381.4,82.26,383.53,62ZM381.65,66c0,13.16-8.51,21.45-11.09,23.67l0-.06-.13-.06L358.53,66l11.64-23.68C372.79,44.44,381.65,52.75,381.65,66ZM256.54,49.42c-1.19-2.6-.54-5.44,2-8.67,21.57-27.68,42.77-40.64,63-38.51,28.41,3,45.74,35.33,47.54,38.85l-10.71,21.8a25.56,25.56,0,0,0-51,1.47C302.86,64.1,262,61.32,256.54,49.42ZM356.86,66.06a23.5,23.5,0,1,1,0-.92c0,.24,0,.48,0,.73l-.05.1ZM258.52,89.57c-2.52-3.24-3.16-6.08-2-8.68C262,69,302.87,66.21,307.31,66a25.56,25.56,0,0,0,50.86,2.7l10.63,21c-2.86,5.13-20.68,35-48.43,37.62C300.22,129.16,279.43,116.45,258.52,89.57ZM317.92,129l.93,0c.4,0,.79,0,1.2,0,13.16,0,21.46,8.51,23.67,11.09l-.06,0-.06.12L320,152l-23.69-11.64C298.39,137.86,305.92,129.82,317.92,129ZM256.32,189c3-28.41,35.33-45.74,38.85-47.54L317,152.18a25.56,25.56,0,0,0,1.47,51c-.26,4.46-3,45.31-14.94,50.76-2.61,1.19-5.45.54-8.68-2C267.14,230.41,254.18,209.22,256.32,189Zm-1.89,3.93c0,13.16-8.51,21.45-11.09,23.66l0-.05-.12-.06-11.94-23.56L243,169.23C245.57,171.4,254.43,179.71,254.43,192.93ZM206.91,2.47c2.59-1.19,5.44-.54,8.67,2,27.68,21.56,40.64,42.75,38.51,63-3,28.41-35.34,45.74-38.85,47.54l-21.81-10.72a25.56,25.56,0,0,0-1.47-51C192.23,48.77,195,7.92,206.91,2.47ZM190.35,102.73l-.09,0a23.28,23.28,0,1,1,.93,0c-.25,0-.49,0-.73,0ZM129.06,66.29c-1.88-20.13,10.8-40.94,37.69-61.84,3.24-2.52,6.08-3.16,8.69-2,11.9,5.45,14.67,46.31,14.94,50.75a25.56,25.56,0,0,0-2.71,50.86l-21,10.63C161.55,111.86,131.64,94,129.06,66.29Zm37.63,50.18.05,0,.06-.12,23.56-11.93,23.69,11.64c-2.07,2.5-9.81,10.72-22.08,11.4-1.23,0-2.46-.06-3.69,0C176.32,126.65,168.78,118.91,166.69,116.47Zm-37.36,59.91c-1.19-2.61-.55-5.44,2-8.68,19.49-25,38.69-38,57.12-38.69.64,0,1.27.09,1.93.09s1,0,1.48-.07c.82,0,1.64.09,2.45.17,28.41,3,45.74,35.33,47.55,38.85l-10.72,21.8a25.56,25.56,0,0,0-51,1.47C175.64,191.06,134.77,188.28,129.33,176.38ZM229.64,193a23.5,23.5,0,1,1,0-.92c0,.24,0,.48,0,.72l-.06.11ZM131.3,216.53c-2.52-3.24-3.16-6.08-2-8.69,5.45-11.9,46.32-14.67,50.75-14.93a25.56,25.56,0,0,0,50.86,2.7l10.64,21c-2.85,5.1-20.48,34.67-48,37.56-.27,0-.53,0-.81,0a29.36,29.36,0,0,0-3.82.27C170.18,254.29,150.78,241.57,131.3,216.53ZM189,255.93h.22c1.35,0,2.71-.06,4.05-.19.15,0,.3,0,.45-.06,12.62.39,20.59,8.54,22.75,11.06l-.05,0-.07.12-23.55,11.93-23.69-11.64C171.08,264.78,178,257.39,189,255.93ZM129.1,315.8c3-28.41,35.34-45.74,38.85-47.54L189.76,279a25.56,25.56,0,0,0,1.47,51c-.27,4.46-3,45.31-14.95,50.76-2.6,1.18-5.44.54-8.67-2C139.92,357.21,127,336,129.1,315.8Zm-1.88,3.93c0,13.16-8.51,21.45-11.09,23.66l0-.05-.13-.06L104.1,319.72,115.74,296C118.36,298.2,127.22,306.51,127.22,319.73ZM79.69,129.43c2.6-1.19,5.44-.54,8.68,2,27.68,21.57,40.63,42.76,38.5,63-3,28.41-35.33,45.74-38.85,47.54L66.22,231.2a25.56,25.56,0,0,0-1.48-51C65,175.74,67.79,134.88,79.69,129.43ZM63.14,229.69l-.09,0a23.26,23.26,0,1,1,.92.05c-.24,0-.48,0-.73,0ZM1.84,193.25C0,173.12,12.65,152.31,39.54,131.4c3.23-2.51,6.07-3.16,8.68-2,11.91,5.45,14.67,46.31,14.94,50.75A25.55,25.55,0,0,0,60.46,231l-21,10.64C34.33,238.81,4.42,221,1.84,193.25Zm37.63,50.18.05,0,.07-.12L63.14,231.4l23.7,11.65c-2,2.42-9.3,10.19-20.87,11.32a43,43,0,0,0-6,0A32.46,32.46,0,0,1,39.47,243.43ZM2.11,303.18c-1.19-2.61-.54-5.44,2-8.68,19-24.42,37.78-37.38,55.81-38.62a31,31,0,0,0,3.24.18c1,0,2-.05,2.9-.14l1,.08c28.41,3,45.74,35.33,47.54,38.85l-10.72,21.8a25.56,25.56,0,0,0-51,1.47C48.42,317.86,7.56,315.08,2.11,303.18Zm100.31,16.64a23.27,23.27,0,1,1,0-.93c0,.25,0,.49,0,.73l-.05.11ZM4.09,343.33c-2.52-3.24-3.16-6.08-2-8.69,5.46-11.9,46.31-14.67,50.76-14.93a25.56,25.56,0,0,0,50.86,2.7l10.63,21c-2.86,5.13-20.68,35-48.43,37.62C45.82,382.89,25,370.21,4.09,343.33Zm61.53,39.53c13.16,0,21.46,8.51,23.67,11.09l-.06,0-.06.12L65.61,406,41.92,394.33C44.09,391.72,52.4,382.86,65.62,382.86Zm0,24.83.09,0a23.27,23.27,0,1,1-.93,0c.25,0,.49,0,.73,0ZM49.07,508c-2.61,1.19-5.45.54-8.68-2C12.71,484.41-.25,463.22,1.88,443c3-28.4,35.33-45.73,38.85-47.54l21.81,10.72a25.56,25.56,0,0,0,1.47,51C63.74,461.65,61,502.5,49.07,508Zm40.15-2c-3.24,2.52-6.08,3.16-8.69,2-11.9-5.45-14.67-46.31-14.93-50.75a25.56,25.56,0,0,0,2.7-50.86l21-10.63c5.13,2.86,35,20.68,37.63,48.43C128.79,464.26,116.11,485.06,89.22,506Zm39.54-61.52c0-13.16,8.51-21.46,11.09-23.67l0,.06.12.06,11.93,23.55-11.64,23.7C137.61,466,128.76,457.69,128.76,444.45Zm123.12,25.22c-21.56,27.68-42.77,40.64-63,38.51-28.41-3-45.74-35.34-47.54-38.85l10.72-21.8a25.56,25.56,0,0,0,51-1.48c4.45.27,45.31,3.05,50.76,14.95C255.05,463.6,254.41,466.44,251.88,469.67Z"/></svg>