<svg id="Capa_1" data-name="Capa 1" xmlns="http://www.w3.org/2000/svg" viewBox="0 0 82.91 82.79"><defs><style>.cls-1{fill:#f26b6b;}</style></defs><title>patron_salmon_chico</title><path class="cls-1" d="M2.12,14.35c.22.44,3.11,6,7.92,6.47.24,0,.48,0,.73,0,3.14,0,6.41-2.14,9.71-6.37a1.57,1.57,0,0,0,.35-1.66c-.73-1.58-4.74-2.22-7-2.45,2.25-.24,6.26-.87,7-2.45a1.54,1.54,0,0,0-.34-1.66C17,1.83,13.58-.26,10.23.05,5.83.46,2.94,5,2.27,6.13L2.21,6l-.12.09a5.47,5.47,0,0,0-2,4.14A5.39,5.39,0,0,0,2.12,14.35ZM20.6,12.92a1.33,1.33,0,0,1-.32,1.41c-3.5,4.48-6.94,6.59-10.21,6.24-4.61-.49-7.42-5.73-7.71-6.3L4.1,10.73a4.14,4.14,0,0,0,8.27-.23C13.09,10.54,19.72,11,20.6,12.92ZM4.34,10.22a3.73,3.73,0,1,1,0,.15.49.49,0,0,1,0-.12h0ZM10.25.3c3.26-.31,6.64,1.75,10,6.11a1.33,1.33,0,0,1,.32,1.41c-.89,1.93-7.51,2.38-8.23,2.42A4.15,4.15,0,0,0,4.12,9.8L2.4,6.4C2.86,5.57,5.75.72,10.25.3ZM2.12,6.4h0l1.94,3.82L2.18,14.08A5.12,5.12,0,0,1,.32,10.24,5.18,5.18,0,0,1,2.12,6.4Z"/><path class="cls-1" d="M80.76,68.29c-.21-.42-2.93-5.62-7.48-6.4a5.6,5.6,0,0,0,3-1.93c.44-.22,6-3.1,6.47-7.92.35-3.37-1.78-6.88-6.34-10.43a1.55,1.55,0,0,0-1.66-.35c-1.58.72-2.22,4.74-2.45,7-.24-2.25-.87-6.27-2.45-7a1.57,1.57,0,0,0-1.66.35C63.77,45.06,61.68,48.5,62,51.86c.41,4.4,4.91,7.28,6.08,8l-.12.06L68,60a5.62,5.62,0,0,0,3,1.88c-2.81.44-5.69,2.54-8.6,6.28a1.55,1.55,0,0,0-.35,1.67c.72,1.57,4.73,2.21,7,2.44-2.25.24-6.26.87-7,2.45a1.53,1.53,0,0,0,.35,1.66c3.22,4.15,6.44,6.24,9.59,6.24.22,0,.44,0,.65,0,4.4-.41,7.29-4.91,8-6.08l.06.12.11-.09a5.2,5.2,0,0,0,0-8.25Zm-5.9-26.8a1.31,1.31,0,0,1,1.41.32c4.48,3.49,6.58,6.93,6.24,10.21-.49,4.6-5.73,7.41-6.3,7.7L72.67,58a4.14,4.14,0,0,0-.23-8.27C72.48,49,72.93,42.37,74.86,41.49ZM72.18,57.74h0a3.73,3.73,0,1,1,.15,0h-.13Zm-9.94-5.91c-.31-3.26,1.75-6.63,6.11-10a1.31,1.31,0,0,1,1.41-.32c1.93.88,2.38,7.51,2.42,8.23A4.14,4.14,0,0,0,71.74,58l-3.4,1.73C67.51,59.22,62.66,56.33,62.24,51.83ZM68.34,60h0v0L72.18,58,76,59.91a4.94,4.94,0,0,1-7.68.06Zm-6.06,9.75a1.31,1.31,0,0,1,.32-1.4c3.5-4.49,6.94-6.59,10.21-6.25,4.61.49,7.42,5.73,7.71,6.3l-1.74,3.54a4.14,4.14,0,0,0-8.27.24C69.79,72.1,63.16,71.65,62.28,69.72Zm16.26,2.7a3.73,3.73,0,1,1,0-.15v.14Zm-5.91,9.92c-3.26.31-6.64-1.75-10-6.11a1.33,1.33,0,0,1-.32-1.41c.89-1.93,7.51-2.37,8.23-2.42a4.15,4.15,0,0,0,8.25.44l1.72,3.4C80,77.08,77.13,81.92,72.63,82.34Zm8.14-6.1h0L78.82,72.4l1.88-3.84a5.13,5.13,0,0,1,1.86,3.85A5.19,5.19,0,0,1,80.77,76.24Z"/><path class="cls-1" d="M62.13,72.67c.36-3.37-1.77-6.88-6.34-10.44a1.57,1.57,0,0,0-1.66-.35c-1.58.72-2.21,4.74-2.45,7-.23-2.25-.87-6.26-2.44-7a1.59,1.59,0,0,0-1.67.35c-4.43,3.45-6.52,6.9-6.2,10.25.41,4.4,4.91,7.29,6.08,8l-.12.06.09.12a5.2,5.2,0,0,0,8.25,0C56.1,80.37,61.62,77.48,62.13,72.67Zm-10.56,5.7h0a3.73,3.73,0,1,1,.15,0Zm-10-5.91c-.3-3.27,1.76-6.64,6.12-10a1.31,1.31,0,0,1,1.4-.32c1.93.89,2.38,7.51,2.43,8.23a4.15,4.15,0,0,0-.44,8.25l-3.41,1.72C46.88,79.84,42,77,41.61,72.46Zm9.94,9.93a5.2,5.2,0,0,1-3.84-1.8h0v0l3.82-1.94,3.84,1.89A5.12,5.12,0,0,1,51.55,82.39Zm4-2-3.54-1.74a4.14,4.14,0,0,0-.24-8.27c0-.72.5-7.35,2.42-8.23a1.33,1.33,0,0,1,1.41.32c4.49,3.5,6.59,6.93,6.24,10.21C61.4,77.25,56.16,80.06,55.59,80.35Z"/><path class="cls-1" d="M34.46,72.14c2.25-.24,6.27-.87,7-2.45A1.59,1.59,0,0,0,41.1,68c-3.45-4.43-6.89-6.51-10.25-6.2-4.4.41-7.28,4.91-8,6.08l-.06-.12-.12.09a5.52,5.52,0,0,0-1.94,3.27c-.83-4-4.86-6.54-6-7.18l.12-.05-.09-.12a5.56,5.56,0,0,0-3.27-1.95c3.95-.83,6.54-4.86,7.17-6l.06.11.12-.08a5.61,5.61,0,0,0,1.88-3c.44,2.8,2.55,5.69,6.29,8.6a1.88,1.88,0,0,0,1.14.47,1.2,1.2,0,0,0,.52-.12c1.58-.72,2.21-4.73,2.45-7,.23,2.25.87,6.27,2.44,7a1.24,1.24,0,0,0,.53.12,1.9,1.9,0,0,0,1.14-.47c3.81-3,5.88-5.93,6.19-8.83a5.66,5.66,0,0,0,1.87,2.78c.22.43,3.11,6,7.92,6.46A5.85,5.85,0,0,0,52,62c3.14,0,6.4-2.14,9.7-6.38A1.53,1.53,0,0,0,62.07,54c-.72-1.58-4.73-2.21-7-2.45,2.25-.23,6.26-.87,7-2.45a1.54,1.54,0,0,0-.35-1.66c-3.44-4.43-6.89-6.52-10.24-6.21-4.4.41-7.29,4.92-8,6.09l-.06-.12-.12.08a5.67,5.67,0,0,0-1.94,3.27c-.83-3.95-4.86-6.53-6-7.17l.12-.06-.09-.12a5.59,5.59,0,0,0-3.1-1.91c3.86-.9,6.38-4.84,7-5.92l.06.11.12-.08a5.64,5.64,0,0,0,1.87-3c.45,2.8,2.55,5.69,6.29,8.6a1.9,1.9,0,0,0,1.14.47,1.17,1.17,0,0,0,.52-.12c1.58-.72,2.22-4.73,2.45-7,.24,2.26.87,6.27,2.45,7a1.2,1.2,0,0,0,.52.12A1.88,1.88,0,0,0,55.93,41c3.81-3,5.89-5.93,6.19-8.83A5.58,5.58,0,0,0,64,34.94c.21.43,3.1,6,7.91,6.46a6,6,0,0,0,.73,0c3.15,0,6.41-2.14,9.71-6.38a1.57,1.57,0,0,0,.35-1.66C82,31.82,78,31.19,75.71,31c2.25-.23,6.26-.87,7-2.44a1.59,1.59,0,0,0-.35-1.67c-3.45-4.43-6.9-6.52-10.25-6.21-4.4.42-7.28,4.92-8,6.09l-.06-.12-.12.09A5.52,5.52,0,0,0,62,30c-.83-3.95-4.86-6.53-6-7.17l.12-.06-.09-.12a5.62,5.62,0,0,0-3.16-1.92c3.89-.88,6.43-4.85,7.06-5.94l.06.12.12-.09a5.56,5.56,0,0,0,1.88-3c.44,2.8,2.55,5.68,6.28,8.6a1.89,1.89,0,0,0,1.15.46,1.22,1.22,0,0,0,.52-.11c1.58-.72,2.21-4.74,2.45-7,.23,2.25.86,6.26,2.44,7a1.4,1.4,0,0,0,.53.11,1.88,1.88,0,0,0,1.14-.46c4.43-3.45,6.52-6.9,6.2-10.25-.41-4.4-4.91-7.28-6.08-8l.12-.06L76.71,2a5.19,5.19,0,0,0-8.25,0C68,2.27,62.84,5,62.06,9.53a5.6,5.6,0,0,0-1.93-3C59.91,6.09,57,.57,52.22.06,48.85-.3,45.34,1.83,41.78,6.39a1.59,1.59,0,0,0-.35,1.67c.72,1.58,4.74,2.21,7,2.45-2.25.23-6.26.87-7,2.44a1.59,1.59,0,0,0,.35,1.67c2.94,3.77,5.87,5.84,8.75,6.18a5.53,5.53,0,0,0-2.69,1.84c-.42.21-5.62,2.93-6.4,7.48a5.6,5.6,0,0,0-1.93-3c-.21-.42-2.89-5.55-7.39-6.39A5.57,5.57,0,0,0,35,18.82c.44-.22,6-3.11,6.47-7.92C41.86,7.53,39.73,4,35.17.47A1.53,1.53,0,0,0,33.51.12c-1.58.72-2.21,4.73-2.45,7-.23-2.25-.87-6.26-2.45-7A1.53,1.53,0,0,0,27,.47c-4.43,3.44-6.52,6.89-6.21,10.24.41,4.4,4.91,7.29,6.08,8l-.11.06.08.11a5.57,5.57,0,0,0,2.87,1.86c-2.77.47-5.62,2.57-8.5,6.27a1.55,1.55,0,0,0-.35,1.66c.72,1.58,4.73,2.22,7,2.45-2.26.24-6.27.87-7,2.45a1.55,1.55,0,0,0,.35,1.66C24.07,39,27,41,29.85,41.38a5.6,5.6,0,0,0-2.64,1.82c-.42.21-5.61,2.93-6.4,7.48a5.64,5.64,0,0,0-1.92-3c-.21-.41-2.87-5.5-7.33-6.37a5.56,5.56,0,0,0,2.86-1.89c.43-.22,6-3.1,6.46-7.92.36-3.37-1.77-6.88-6.33-10.43a1.59,1.59,0,0,0-1.67-.35c-1.57.72-2.21,4.74-2.44,7-.24-2.25-.87-6.27-2.45-7a1.59,1.59,0,0,0-1.67.35C1.89,24.5-.19,27.94.12,31.3c.41,4.4,4.91,7.28,6.08,8l-.12.06.09.12A5.51,5.51,0,0,0,9,41.28c-2.75.49-5.58,2.59-8.44,6.26A1.57,1.57,0,0,0,.18,49.2c.73,1.58,4.74,2.21,7,2.45-2.25.23-6.26.87-7,2.45a1.57,1.57,0,0,0,.35,1.66c3,3.81,5.93,5.89,8.84,6.19a5.6,5.6,0,0,0-2.78,1.87c-.44.22-6,3.11-6.46,7.92-.36,3.37,1.77,6.88,6.33,10.44a1.88,1.88,0,0,0,1.14.46,1.4,1.4,0,0,0,.53-.11c1.57-.73,2.21-4.74,2.44-7,.24,2.25.87,6.26,2.45,7a1.2,1.2,0,0,0,.52.12,1.84,1.84,0,0,0,1.14-.46c3.82-3,5.89-5.93,6.2-8.84a5.59,5.59,0,0,0,1.87,2.78c.22.43,3.1,6,7.92,6.46a5.79,5.79,0,0,0,.72,0c3.15,0,6.41-2.14,9.71-6.37a1.59,1.59,0,0,0,.35-1.67C40.73,73,36.71,72.37,34.46,72.14ZM30.88,62.07c3.26-.31,6.63,1.75,10,6.11a1.31,1.31,0,0,1,.32,1.41C40.34,71.51,33.71,72,33,72a4.14,4.14,0,0,0-8.24-.44L23,68.17C23.49,67.33,26.38,62.48,30.88,62.07ZM25,72v0h0a3.73,3.73,0,1,1,0,.15S25,72.06,25,72Zm6.35-26.61h0a4,4,0,1,1-.15,0Zm30.54,8.65a1.33,1.33,0,0,1-.32,1.41C58,60,54.59,62.06,51.32,61.71c-4.61-.48-7.42-5.73-7.71-6.3l1.74-3.53a4.14,4.14,0,0,0,8.27-.24C54.34,51.68,61,52.13,61.85,54.06ZM45.58,51.37a4,4,0,1,1,0,.14v-.13Zm5.92-9.93c3.26-.3,6.64,1.75,10,6.11A1.33,1.33,0,0,1,61.85,49c-.89,1.93-7.51,2.38-8.23,2.42a4.15,4.15,0,0,0-8.25-.44l-1.72-3.4C44.11,46.71,47,41.86,51.5,41.44Zm-8.14,6.1h0l1.93,3.82-1.88,3.84a5.12,5.12,0,0,1-1.86-3.84A5.24,5.24,0,0,1,43.36,47.54Zm-2.09,3.79c.3,3.26-1.76,6.63-6.11,10a1.31,1.31,0,0,1-1.41.32c-1.93-.88-2.38-7.5-2.42-8.22a4.15,4.15,0,0,0,.43-8.25l3.41-1.72C36,43.94,40.85,46.83,41.27,51.33ZM51.94,24.85h0a4,4,0,1,1-.15,0ZM82.47,33.5a1.33,1.33,0,0,1-.32,1.41c-3.5,4.49-6.93,6.59-10.21,6.24-4.6-.48-7.41-5.72-7.71-6.3L66,31.32a4.14,4.14,0,0,0,8.27-.24C75,31.12,81.59,31.57,82.47,33.5ZM66.21,30.81a3.72,3.72,0,1,1,0,.15s0-.08,0-.12v0Zm5.91-9.93c3.26-.3,6.64,1.76,10,6.11a1.33,1.33,0,0,1,.32,1.41c-.88,1.93-7.51,2.38-8.23,2.42A4.14,4.14,0,0,0,66,30.39L64.27,27C64.74,26.15,67.63,21.3,72.12,20.88ZM64,27h0l1.94,3.82-1.89,3.84A4.94,4.94,0,0,1,64,27Zm-2.1,3.79c.3,3.26-1.75,6.64-6.11,10a1.32,1.32,0,0,1-1.41.31c-1.93-.88-2.38-7.5-2.42-8.22a4.15,4.15,0,0,0,.44-8.25l3.4-1.72C56.62,23.38,61.47,26.27,61.89,30.77ZM72.56,4.27h0a3.73,3.73,0,1,1-.15,0Zm10,5.91c.3,3.27-1.76,6.64-6.12,10a1.31,1.31,0,0,1-1.4.32c-1.93-.88-2.38-7.51-2.43-8.23A4.14,4.14,0,0,0,73,4.06l3.41-1.73C77.25,2.8,82.1,5.69,82.52,10.18ZM72.58.25a5.15,5.15,0,0,1,3.83,1.8h0v0L72.58,4,68.74,2.11A5.13,5.13,0,0,1,72.58.25ZM62.25,10c.48-4.61,5.72-7.41,6.29-7.71L72.08,4a4.14,4.14,0,0,0,.24,8.27c0,.72-.5,7.35-2.43,8.23a1.31,1.31,0,0,1-1.4-.32C64,16.71,61.9,13.28,62.25,10Zm-.31.64a5.15,5.15,0,0,1-1.8,3.83h0l-1.94-3.82L60.08,6.8A5.13,5.13,0,0,1,61.94,10.64ZM41.66,8A1.31,1.31,0,0,1,42,6.55C45.47,2.06,48.91,0,52.19.31,56.79.79,59.6,6,59.9,6.6l-1.74,3.54a4.14,4.14,0,0,0-8.27.24C49.17,10.33,42.54,9.88,41.66,8Zm16.26,2.7a3.73,3.73,0,1,1,0-.15s0,.08,0,.12v0ZM42,14.46a1.31,1.31,0,0,1-.32-1.4c.88-1.93,7.51-2.38,8.23-2.43a4.14,4.14,0,0,0,8.24.44l1.73,3.41c-.47.83-3.36,5.68-7.85,6.1C48.74,20.88,45.37,18.82,42,14.46Zm9.63,6.39H52a5.18,5.18,0,0,1,3.84,1.8h0v0L52,24.58l-3.84-1.89A5.18,5.18,0,0,1,51.61,20.85Zm-10,9.74c.49-4.61,5.73-7.42,6.3-7.71l3.53,1.74a4.14,4.14,0,0,0,.24,8.27c0,.72-.49,7.34-2.42,8.23a1.35,1.35,0,0,1-1.41-.32C43.38,37.3,41.28,33.86,41.62,30.59Zm-.3.63a5.18,5.18,0,0,1-1.8,3.84h0l-1.93-3.82,1.89-3.84A5.15,5.15,0,0,1,41.32,31.22ZM33.61.34A1.33,1.33,0,0,1,35,.66c4.49,3.5,6.59,6.93,6.24,10.21-.49,4.61-5.73,7.42-6.3,7.71l-3.53-1.74a4.14,4.14,0,0,0-.24-8.27C31.23,7.85,31.68,1.23,33.61.34ZM30.93,16.6h0a3.73,3.73,0,1,1,.15,0h-.13ZM21,10.69c-.3-3.26,1.75-6.64,6.11-10A1.33,1.33,0,0,1,28.51.34c1.93.89,2.38,7.51,2.42,8.23a4.15,4.15,0,0,0-.44,8.25l-3.4,1.72C26.26,18.08,21.41,15.19,21,10.69Zm6.1,8.14h0v0l3.82-1.93,3.84,1.88a5.18,5.18,0,0,1-3.58,1.85h-.6A5.24,5.24,0,0,1,27.09,18.83ZM21,28.54a1.35,1.35,0,0,1,.32-1.41c3.16-4.05,6.28-6.16,9.26-6.27h.56l.39,0c4.61.49,7.42,5.73,7.71,6.3l-1.74,3.53a4.14,4.14,0,0,0-8.27.24C28.54,30.92,21.92,30.47,21,28.54Zm16.27,2.7a4,4,0,1,1,0-.15v.12h0ZM21.35,35.05A1.33,1.33,0,0,1,21,33.64c.88-1.93,7.5-2.38,8.22-2.42a4.15,4.15,0,0,0,8.25.44l1.72,3.4c-.46.83-3.32,5.62-7.77,6.09h-.13a4.1,4.1,0,0,0-.62,0C27.66,41.17,24.51,39.11,21.35,35.05Zm9.36,6.39h0q.33,0,.66,0h.07a5.22,5.22,0,0,1,3.69,1.79h0v0l-3.82,1.93-3.84-1.89A5.2,5.2,0,0,1,30.71,41.44ZM21,51.14c.48-4.6,5.73-7.41,6.3-7.7l3.53,1.73a4.15,4.15,0,0,0,.24,8.28c0,.72-.49,7.34-2.42,8.22a1.31,1.31,0,0,1-1.41-.32C22.75,57.86,20.65,54.42,21,51.14Zm-.31.64a5.2,5.2,0,0,1-1.8,3.84h0l-1.94-3.82,1.89-3.84A5.12,5.12,0,0,1,20.69,51.78ZM13,20.93a1.29,1.29,0,0,1,1.4.32c4.49,3.49,6.59,6.93,6.25,10.21-.49,4.6-5.73,7.41-6.3,7.71L10.8,37.43a4.14,4.14,0,0,0-.24-8.27C10.61,28.44,11.06,21.81,13,20.93ZM10.3,37.18h0a3.73,3.73,0,1,1,.15,0H10.3ZM.37,31.27c-.31-3.26,1.75-6.63,6.11-10a1.31,1.31,0,0,1,1.41-.32c1.93.88,2.37,7.51,2.42,8.23a4.14,4.14,0,0,0-.44,8.24l-3.4,1.73C5.63,38.66.79,35.77.37,31.27Zm6.1,8.14h0v0l3.81-1.94,3.85,1.89a5.24,5.24,0,0,1-3.39,1.83,7.85,7.85,0,0,0-1,0A5.31,5.31,0,0,1,6.47,39.41ZM.41,49.1a1.33,1.33,0,0,1,.32-1.41c3.09-4,6.13-6.06,9-6.26a4.41,4.41,0,0,0,.52,0l.47,0h.17c4.61.48,7.42,5.73,7.71,6.3l-1.74,3.53a4.14,4.14,0,0,0-8.27.24C7.92,51.48,1.29,51,.41,49.1Zm16.26,2.7a3.73,3.73,0,1,1,0-.15.41.41,0,0,1,0,.11v0ZM.73,55.61A1.33,1.33,0,0,1,.41,54.2c.89-1.93,7.51-2.38,8.23-2.42a4.15,4.15,0,0,0,8.25.44l1.72,3.4c-.46.83-3.35,5.68-7.85,6.1C7.5,62,4.12,60,.73,55.61Zm10,6.41a5.15,5.15,0,0,1,3.83,1.8h0v0L10.7,65.76,6.86,63.88A5.13,5.13,0,0,1,10.71,62Zm0,4h0a3.73,3.73,0,1,1-.15,0h.14ZM8,82.3A1.31,1.31,0,0,1,6.62,82C2.13,78.48,0,75.05.37,71.77c.49-4.61,5.73-7.42,6.3-7.71l3.54,1.74a4.14,4.14,0,0,0,.24,8.27C10.4,74.79,10,81.42,8,82.3ZM14.53,82a1.33,1.33,0,0,1-1.41.32c-1.93-.89-2.37-7.51-2.42-8.23a4.15,4.15,0,0,0,.44-8.25l3.4-1.72c.84.46,5.68,3.35,6.1,7.85C21,75.21,18.89,78.59,14.53,82Zm6.41-10a5.15,5.15,0,0,1,1.8-3.83h0L24.69,72,22.8,75.85A5.16,5.16,0,0,1,20.94,72Zm20,4.09c-3.49,4.49-6.93,6.59-10.21,6.25-4.6-.49-7.41-5.73-7.71-6.3l1.74-3.54A4.14,4.14,0,0,0,33,72.26c.73,0,7.35.5,8.23,2.43A1.29,1.29,0,0,1,40.9,76.09Z"/></svg>