<svg id="Capa_1" data-name="Capa 1" xmlns="http://www.w3.org/2000/svg" viewBox="0 0 512.66 510.27"><defs><style>.cls-1{fill:#f2e8dc;}</style></defs><title>patron_claro</title><path class="cls-1" d="M16.25,89.45c1.34,2.66,19,36.5,48.53,39.61a41.32,41.32,0,0,0,4.45.23c19.28,0,39.28-13.12,59.5-39.07,2.84-3.65,3.56-7.08,2.14-10.19-4.42-9.67-29-13.56-42.83-15,13.8-1.44,38.39-5.33,42.82-15,1.43-3.11.71-6.54-2.13-10.2C107.6,12.67,86.48-.1,65.92,1.79c-27,2.52-44.64,30.1-48.8,37.27l-.36-.71-.73.53C15.9,39,3.65,48.09,3.65,64.22,3.65,79.37,14.79,88.34,16.25,89.45Zm113.23-8.79c1.18,2.59.54,5.41-2,8.62-21.43,27.51-42.5,40.39-62.58,38.26-28.22-3-45.44-35.11-47.23-38.6L28.36,67.28a25.4,25.4,0,0,0,50.69-1.47C83.47,66.08,124.07,68.84,129.48,80.66ZM29.82,64.13a23.11,23.11,0,1,1-.05.92c0-.25,0-.48,0-.73l.05-.1ZM66.06,3.32c20-1.89,40.68,10.73,61.46,37.45,2.5,3.21,3.14,6,2,8.63C124.05,61.23,83.45,64,79,64.24a25.39,25.39,0,0,0-50.53-2.69L18,40.7C20.79,35.6,38.5,5.88,66.06,3.32ZM16.2,40.7l0,.06.12.06,11.86,23.4L16.58,87.76C14,85.61,5.18,77.35,5.18,64.22S13.64,42.9,16.2,40.7Z"/><path class="cls-1" d="M498.17,420c-1.3-2.58-17.95-34.43-45.82-39.23A34.28,34.28,0,0,0,470.8,369c2.66-1.35,36.5-19,39.61-48.53,2.18-20.65-10.88-42.17-38.84-63.95-3.65-2.84-7.08-3.57-10.19-2.14-9.67,4.42-13.56,29-15,42.82-1.44-13.79-5.33-38.38-15-42.81-3.12-1.43-6.55-.71-10.21,2.13-27.15,21.12-39.95,42.26-38,62.81,2.51,26.95,30.1,44.64,37.26,48.8l-.71.36.53.73a34.3,34.3,0,0,0,18.18,11.51c-17.18,2.71-34.86,15.61-52.72,38.52-2.84,3.66-3.57,7.09-2.14,10.2,4.42,9.66,29,13.56,42.82,15-13.79,1.44-38.38,5.33-42.81,15-1.43,3.12-.71,6.55,2.13,10.21,19.75,25.38,39.5,38.22,58.78,38.22,1.35,0,2.69-.06,4-.19,27-2.51,44.64-30.1,48.8-37.27l.36.72.73-.53c.12-.09,12.37-9.21,12.37-25.34C510.76,430.08,499.63,421.11,498.17,420ZM462,255.74c2.6-1.18,5.41-.54,8.62,2,27.51,21.43,40.38,42.48,38.26,62.57-3,28.23-35.1,45.45-38.6,47.24l-21.66-10.65a25.4,25.4,0,0,0-1.47-50.69C447.43,301.75,450.19,261.15,462,255.74Zm-16.44,99.62-.09,0a23.11,23.11,0,1,1,.92.05c-.25,0-.48,0-.72,0Zm-60.9-36.21c-1.86-20,10.74-40.68,37.45-61.45,3.22-2.5,6-3.14,8.63-1.95,11.83,5.42,14.58,46,14.84,50.43a25.39,25.39,0,0,0-2.68,50.53l-20.86,10.56C417,364.43,387.23,346.72,384.67,319.15ZM422.05,369l.06,0,.06-.13,23.41-11.85,23.54,11.57C467,371.23,458.7,380,445.57,380S424.25,371.58,422.05,369Zm-37.11,59.76c-1.19-2.58-.54-5.4,2-8.62,21.43-27.5,42.5-40.35,62.57-38.25,28.23,3,45.45,35.1,47.24,38.59l-10.65,21.67a25.4,25.4,0,0,0-50.69,1.46C430.94,443.37,390.35,440.61,384.94,428.78Zm99.66,16.54a23.11,23.11,0,1,1,0-.92c0,.24,0,.48,0,.73l-.05.1Zm-36.25,60.81c-20,1.88-40.68-10.74-61.45-37.45-2.5-3.22-3.14-6-1.95-8.63,5.41-11.83,46-14.58,50.43-14.84a25.39,25.39,0,0,0,50.53,2.68l10.56,20.86C493.63,473.85,475.92,503.56,448.35,506.13Zm49.86-37.38,0-.06-.12-.06-11.85-23.41,11.57-23.54c2.59,2.15,11.4,10.41,11.4,23.55S500.77,466.56,498.21,468.75Z"/><path class="cls-1" d="M384,446.84c2.18-20.66-10.89-42.17-38.84-63.95-3.65-2.85-7.08-3.57-10.2-2.15-9.66,4.43-13.55,29-15,42.83-1.43-13.8-5.32-38.39-15-42.82-3.11-1.43-6.55-.71-10.2,2.14-27.16,21.12-40,42.25-38,62.81,2.52,26.95,30.1,44.63,37.27,48.79l-.72.37.53.72c.09.13,9.22,12.38,25.35,12.38,15.15,0,24.11-11.13,25.23-12.6C347.07,494,380.9,476.33,384,446.84Zm-64.74,35-.11-.06-.08.05a23.34,23.34,0,1,1,.91,0Zm-61-36.26c-1.86-20,10.74-40.68,37.46-61.46,3.21-2.5,6-3.14,8.62-1.95,11.83,5.42,14.58,46,14.85,50.43a25.39,25.39,0,0,0-2.69,50.53l-20.86,10.57C290.55,490.82,260.84,473.12,258.27,445.55Zm60.91,60.88c-13.08,0-21.33-8.46-23.52-11l0,0,.07-.12,23.4-11.86L342.72,495C340.57,497.63,332.31,506.43,319.18,506.43Zm24.72-12.52-21.67-10.65a25.4,25.4,0,0,0-1.46-50.69c.27-4.42,3-45,14.85-50.44,2.59-1.18,5.41-.54,8.62,2,27.5,21.43,40.37,42.49,38.26,62.58C379.52,474.89,347.4,492.11,343.9,493.91Z"/><path class="cls-1" d="M214.44,443.57c13.8-1.44,38.39-5.32,42.82-15,1.42-3.11.7-6.55-2.14-10.2-21.12-27.16-42.24-39.95-62.81-38-26.95,2.52-44.63,30.1-48.8,37.27l-.36-.72-.73.53a34.08,34.08,0,0,0-11.9,20c-5.08-24.23-29.79-40.06-36.52-44l.72-.37-.53-.72a34,34,0,0,0-20-11.9c24.22-5.09,40.05-29.79,44-36.52l.36.71.73-.52A34.31,34.31,0,0,0,130.71,326c2.71,17.18,15.61,34.86,38.53,52.71a11.58,11.58,0,0,0,7,2.85,7.49,7.49,0,0,0,3.2-.71c9.67-4.42,13.56-29,15-42.82,1.44,13.8,5.33,38.39,15,42.82a7.72,7.72,0,0,0,3.21.71,11.58,11.58,0,0,0,7-2.85c23.36-18.17,36.06-36.34,37.95-54.15a34.37,34.37,0,0,0,11.46,17c1.35,2.66,19,36.5,48.53,39.61a41.32,41.32,0,0,0,4.45.23c19.28,0,39.28-13.12,59.5-39.06,2.84-3.66,3.57-7.09,2.14-10.2-4.42-9.67-29-13.56-42.82-15,13.79-1.44,38.38-5.33,42.81-15,1.43-3.12.71-6.55-2.13-10.21-21.12-27.15-42.25-40-62.81-38-27,2.51-44.64,30.1-48.8,37.27l-.37-.72-.72.53a34,34,0,0,0-11.9,20c-5.09-24.22-29.79-40.05-36.52-44l.72-.36-.53-.73a34.25,34.25,0,0,0-19.05-11.71c23.67-5.53,39.12-29.67,43-36.31l.36.72.73-.53A34.36,34.36,0,0,0,257.11,200c2.71,17.17,15.61,34.85,38.52,52.7a11.54,11.54,0,0,0,7,2.86,7.64,7.64,0,0,0,3.2-.71c9.66-4.42,13.56-29,15-42.83,1.44,13.8,5.33,38.39,15,42.82a7.58,7.58,0,0,0,3.22.71,11.58,11.58,0,0,0,7-2.85c23.36-18.16,36.06-36.34,37.94-54.15a34.41,34.41,0,0,0,11.47,17.05c1.34,2.65,19,36.49,48.52,39.61a44.06,44.06,0,0,0,4.45.23c19.29,0,39.28-13.12,59.5-39.07,2.85-3.66,3.57-7.09,2.15-10.2-4.43-9.66-29-13.56-42.83-15,13.8-1.44,38.39-5.32,42.82-15,1.42-3.11.71-6.55-2.14-10.2-21.12-27.16-42.25-40-62.81-38-27,2.51-44.63,30.1-48.8,37.27l-.36-.72-.73.53a34,34,0,0,0-11.9,20c-5.08-24.22-29.79-40.05-36.52-43.95l.72-.37L347,140a34.06,34.06,0,0,0-19.38-11.79c23.85-5.38,39.43-29.72,43.3-36.39l.37.72L372,92A34.23,34.23,0,0,0,383.5,73.85C386.21,91,399.11,108.7,422,126.56a11.58,11.58,0,0,0,7,2.85,7.57,7.57,0,0,0,3.21-.71c9.66-4.42,13.55-29,15-42.82,1.43,13.8,5.32,38.39,15,42.82a7.69,7.69,0,0,0,3.21.71,11.58,11.58,0,0,0,7-2.85c27.16-21.12,40-42.25,38-62.81-2.52-26.95-30.1-44.64-37.27-48.8l.72-.36-.53-.73c-.09-.12-9.22-12.37-25.35-12.37-15.15,0-24.11,11.13-25.23,12.59-2.57,1.31-34.42,18-39.23,45.82a34.27,34.27,0,0,0-11.8-18.45c-1.34-2.66-19-36.5-48.52-39.61C302.6-.34,281.08,12.73,259.3,40.68c-2.85,3.65-3.57,7.08-2.15,10.19,4.43,9.67,29,13.56,42.83,15-13.8,1.44-38.39,5.33-42.82,15-1.42,3.11-.71,6.54,2.14,10.2,18,23.12,36,35.79,53.6,37.88a34.41,34.41,0,0,0-16.49,11.29c-2.58,1.3-34.43,17.95-39.23,45.82a34.32,34.32,0,0,0-11.8-18.46c-1.3-2.55-17.74-34-45.27-39.12A34.34,34.34,0,0,0,218,116.82c2.66-1.35,36.5-19,39.61-48.53,2.18-20.65-10.88-42.17-38.83-63.95-3.66-2.85-7.09-3.57-10.2-2.14-9.67,4.42-13.56,29-15,42.82-1.44-13.79-5.33-38.39-15-42.82-3.12-1.42-6.55-.7-10.21,2.14-27.15,21.12-39.95,42.25-38,62.81,2.51,26.95,30.1,44.64,37.26,48.8l-.71.36.53.73A34.26,34.26,0,0,0,185,128.4c-17,2.92-34.45,15.79-52.09,38.43-2.84,3.66-3.57,7.09-2.14,10.2,4.42,9.66,29,13.56,42.82,15-13.79,1.44-38.38,5.33-42.81,15-1.43,3.12-.71,6.55,2.13,10.21,17.86,23,35.73,35.62,53.26,37.83A34.66,34.66,0,0,0,170,266.23c-2.57,1.31-34.42,18-39.23,45.83A34.26,34.26,0,0,0,119,293.6c-1.28-2.55-17.59-33.71-44.91-39.05A34.39,34.39,0,0,0,91.62,243c2.65-1.34,36.49-19,39.61-48.53,2.18-20.65-10.89-42.17-38.84-63.94-3.65-2.85-7.08-3.57-10.2-2.15-9.66,4.42-13.55,29-15,42.83-1.43-13.8-5.32-38.39-15-42.82-3.12-1.43-6.55-.71-10.2,2.14C14.84,151.62,2,172.75,4,193.31c2.52,26.95,30.1,44.63,37.27,48.79l-.72.37.53.72A34.33,34.33,0,0,0,58.2,254.47c-16.85,3-34.19,15.89-51.69,38.36-2.85,3.65-3.57,7.08-2.15,10.19,4.43,9.67,29,13.56,42.83,15-13.8,1.43-38.39,5.32-42.82,15-1.43,3.11-.71,6.54,2.14,10.2,18.17,23.36,36.34,36.06,54.15,37.95a34.32,34.32,0,0,0-17,11.46C41,394,7.12,411.66,4,441.16c-2.18,20.65,10.88,42.17,38.83,63.95a11.58,11.58,0,0,0,7,2.85,7.64,7.64,0,0,0,3.2-.71c9.66-4.42,13.56-29,15-42.82,1.44,13.79,5.33,38.38,15,42.81a7.59,7.59,0,0,0,3.22.72,11.64,11.64,0,0,0,7-2.85c23.36-18.17,36.06-36.35,37.94-54.16A34.49,34.49,0,0,0,142.64,468c1.35,2.66,19,36.49,48.53,39.61a44.06,44.06,0,0,0,4.45.23c19.29,0,39.28-13.12,59.5-39.07,2.85-3.65,3.57-7.08,2.15-10.2C252.84,448.91,228.24,445,214.44,443.57Zm-22-61.71c20-1.88,40.68,10.74,61.45,37.46,2.51,3.21,3.14,6,2,8.62-5.42,11.83-46,14.58-50.43,14.85a25.39,25.39,0,0,0-50.53-2.69l-10.57-20.86C147.19,414.14,164.89,384.43,192.46,381.86Zm-36.26,61,.06-.11,0-.08a23.34,23.34,0,1,1,0,.91C156.17,443.35,156.2,443.11,156.2,442.87Zm38.94-163.08.11.06.08-.05a23.34,23.34,0,1,1-.91,0Zm187.13,53c1.19,2.59.54,5.41-2,8.63-21.43,27.5-42.49,40.37-62.57,38.25-28.23-3-45.45-35.1-47.24-38.6l10.65-21.66A25.4,25.4,0,0,0,331.84,318C336.26,318.23,376.86,321,382.27,332.81Zm-99.66-16.53a23.11,23.11,0,1,1-.05.92c0-.25,0-.48,0-.73l0-.1Zm36.25-60.81c20-1.87,40.67,10.74,61.45,37.45,2.5,3.22,3.14,6,1.95,8.63-5.42,11.83-46,14.58-50.43,14.84a25.39,25.39,0,0,0-50.53-2.69l-10.56-20.85C273.58,287.75,291.29,258,318.86,255.47ZM269,292.85l0,.06.13.06,11.85,23.41-11.57,23.53c-2.59-2.15-11.4-10.41-11.4-23.54S266.44,295,269,292.85Zm-12.85,23.2c1.86,20-10.74,40.68-37.46,61.45-3.21,2.5-6,3.14-8.62,2-11.83-5.42-14.58-46-14.85-50.43a25.39,25.39,0,0,0,2.69-50.53l20.86-10.57C223.86,270.78,253.58,288.48,256.15,316.05ZM321.54,153.8l.1,0,.09,0a23.11,23.11,0,1,1-.92-.05C321.05,153.76,321.29,153.79,321.54,153.8Zm187.13,53c1.18,2.59.54,5.41-2,8.62-21.43,27.5-42.49,40.37-62.58,38.26-28.22-3-45.44-35.1-47.24-38.6l10.65-21.67A25.4,25.4,0,0,0,458.23,192C462.65,192.24,503.25,195,508.67,206.82ZM409,190.29a23.34,23.34,0,1,1,0,.91c0-.24,0-.48,0-.72l.06-.11Zm36.25-60.82c20-1.85,40.68,10.74,61.46,37.45,2.5,3.22,3.14,6,2,8.63-5.42,11.83-46,14.58-50.43,14.85a25.39,25.39,0,0,0-50.53-2.69l-10.57-20.86C400,161.75,417.69,132,445.25,129.47Zm-49.86,37.39,0,0,.12.07,11.86,23.4-11.57,23.54c-2.6-2.15-11.4-10.41-11.4-23.55S392.83,169.05,395.39,166.86Zm-12.85,23.19c1.86,20-10.74,40.68-37.45,61.46-3.22,2.5-6,3.13-8.63,2-11.83-5.42-14.58-46-14.84-50.43a25.39,25.39,0,0,0,2.69-50.53l20.85-10.57C350.26,144.78,380,162.49,382.54,190.05ZM447.93,27.64l.11.05.08,0a23.1,23.1,0,1,1-.91,0C447.45,27.6,447.69,27.63,447.93,27.64Zm61,36.26c1.86,20-10.74,40.68-37.46,61.45-3.21,2.5-6,3.14-8.63,2-11.82-5.42-14.57-46-14.84-50.43a25.39,25.39,0,0,0,2.69-50.53l20.86-10.57C476.66,18.63,506.37,36.33,508.94,63.9ZM448,3c13.08,0,21.32,8.46,23.52,11l-.06,0-.06.12L448,26,424.49,14.42C426.64,11.82,434.9,3,448,3ZM384.71,62.78c3-28.23,35.11-45.45,38.6-47.24L445,26.19a25.4,25.4,0,0,0,1.46,50.69c-.27,4.42-3,45-14.85,50.43-2.59,1.19-5.41.55-8.62-2C395.47,103.92,382.59,82.87,384.71,62.78Zm-1.87,3.9c0,13.08-8.45,21.32-11,23.52l0-.06-.12-.06-11.86-23.4,11.57-23.54C374,45.29,382.84,53.55,382.84,66.68ZM258.54,50.24c-1.18-2.59-.54-5.41,2-8.62C281.93,14.11,303,1.24,323.08,3.36c28.22,3,45.44,35.1,47.24,38.6L359.67,63.62A25.4,25.4,0,0,0,309,65.09C304.56,64.82,264,62.06,258.54,50.24Zm99.67,16.53a23.34,23.34,0,1,1,0-.92c0,.25,0,.49,0,.73l-.06.11ZM260.5,90.13c-2.5-3.21-3.14-6-1.95-8.63,5.42-11.83,46-14.58,50.43-14.84a25.39,25.39,0,0,0,50.53,2.69l10.57,20.86C367.23,95.3,349.53,125,322,127.58,301.94,129.47,281.28,116.85,260.5,90.13Zm59,39.13.92,0c.4,0,.78-.05,1.19-.05,13.08,0,21.32,8.46,23.52,11l-.06,0-.06.12-23.41,11.86-23.54-11.57C300.12,138.12,307.6,130.13,319.53,129.26Zm-61.21,59.67c3-28.23,35.1-45.45,38.6-47.24l21.66,10.65A25.4,25.4,0,0,0,320,203c-.26,4.42-3,45-14.85,50.43-2.58,1.18-5.41.54-8.62-2C269.07,230.08,256.2,209,258.32,188.93Zm-1.87,3.91c0,13.07-8.46,21.31-11,23.51l0,0-.13-.06-11.85-23.41,11.57-23.54C247.64,171.44,256.45,179.7,256.45,192.84ZM209.22,3.59c2.59-1.19,5.41-.55,8.63,2C245.35,27,258.22,48,256.1,68.12c-3,28.23-35.11,45.45-38.6,47.24l-21.66-10.65A25.4,25.4,0,0,0,194.38,54C194.64,49.59,197.4,9,209.22,3.59Zm-16.44,99.62-.09,0a23.11,23.11,0,1,1,.92,0c-.25,0-.48,0-.73,0ZM131.88,67C130,47,142.62,26.32,169.33,5.55c3.22-2.5,6-3.14,8.63-2C189.79,9,192.54,49.61,192.8,54a25.4,25.4,0,0,0-2.69,50.54l-20.85,10.56C164.16,112.28,134.44,94.57,131.88,67Zm37.39,49.87,0,0,.06-.12,23.41-11.86,23.53,11.58c-2.06,2.48-9.74,10.65-21.94,11.33-1.22-.06-2.44-.07-3.67,0C178.84,127,171.34,119.29,169.27,116.87Zm-37.12,59.52c-1.19-2.59-.55-5.41,2-8.62,19.37-24.85,38.43-37.76,56.75-38.45.63,0,1.26.09,1.92.09.5,0,1,0,1.47-.07.81,0,1.62.09,2.43.18,28.23,3,45.45,35.09,47.24,38.59l-10.65,21.67a25.4,25.4,0,0,0-50.69,1.46C178.16,191,137.56,188.22,132.15,176.39Zm99.66,16.54a23.11,23.11,0,1,1,.05-.92c0,.24,0,.48,0,.72l0,.11Zm-97.7,23.36c-2.5-3.22-3.14-6-2-8.63,5.42-11.83,46-14.58,50.43-14.84a25.39,25.39,0,0,0,50.53,2.68l10.56,20.86c-2.82,5.07-20.35,34.45-47.64,37.32-.27,0-.52,0-.8,0a29.17,29.17,0,0,0-3.8.27C172.73,253.81,153.46,241.17,134.11,216.29Zm57.35,39.15h.22c1.35,0,2.69-.06,4-.19l.44,0c12.54.38,20.46,8.48,22.61,11l-.06,0-.06.12-23.4,11.86L171.7,266.57C173.63,264.23,180.53,256.89,191.46,255.44Zm-59.54,59.49c3-28.23,35.11-45.45,38.6-47.24l21.67,10.65A25.4,25.4,0,0,0,193.65,329c-.27,4.43-3,45-14.85,50.44-2.59,1.17-5.41.54-8.62-2C142.68,356.07,129.8,335,131.92,314.93Zm-1.87,3.9c0,13.08-8.45,21.32-11,23.52l0-.06-.12-.06-11.86-23.4,11.57-23.54C121.25,297.44,130.05,305.7,130.05,318.83ZM82.83,129.74c2.58-1.18,5.41-.54,8.62,2,27.5,21.43,40.37,42.48,38.26,62.58-3,28.23-35.11,45.45-38.6,47.24L69.44,230.87A25.4,25.4,0,0,0,68,180.18C68.25,175.76,71,135.15,82.83,129.74ZM66.38,229.36l-.08,0a23.1,23.1,0,1,1,.91,0c-.24,0-.48,0-.72,0Zm-60.9-36.2c-1.86-20,10.74-40.68,37.45-61.46,3.22-2.5,6-3.14,8.63-1.95,11.83,5.42,14.58,46,14.85,50.43a25.39,25.39,0,0,0-2.69,50.53L42.86,241.28C37.76,238.43,8.05,220.72,5.48,193.16ZM42.87,243l.05,0,.07-.12,23.4-11.86,23.54,11.57c-2,2.4-9.23,10.12-20.73,11.25a42.46,42.46,0,0,0-6,0A32.24,32.24,0,0,1,42.87,243ZM5.75,302.39c-1.18-2.59-.54-5.41,2-8.62,18.92-24.28,37.54-37.15,55.46-38.38a30.5,30.5,0,0,0,3.22.18c1,0,2,0,2.88-.14l1,.08c28.22,3,45.44,35.1,47.24,38.6l-10.65,21.67a25.4,25.4,0,0,0-50.69,1.46C51.76,317,11.16,314.21,5.75,302.39Zm99.67,16.53a23.34,23.34,0,1,1,0-.91c0,.24,0,.48,0,.72l-.06.11ZM7.71,342.28c-2.5-3.21-3.14-6-1.95-8.63,5.42-11.82,46-14.57,50.43-14.84a25.39,25.39,0,0,0,50.53,2.69l10.57,20.86c-2.85,5.09-20.55,34.81-48.12,37.38C49.17,381.6,28.49,369,7.71,342.28Zm61.14,39.28c13.08,0,21.32,8.47,23.52,11l-.06,0-.06.12L68.84,404.53,45.3,393C47.45,390.37,55.72,381.56,68.85,381.56Zm0,24.68.09,0a23.11,23.11,0,1,1-.92-.05c.25,0,.48,0,.72,0ZM52.4,505.86c-2.59,1.19-5.41.54-8.62-2-27.5-21.43-40.37-42.48-38.25-62.57,3-28.23,35.1-45.45,38.6-47.24l21.66,10.65a25.4,25.4,0,0,0,1.46,50.69C67,459.85,64.23,500.45,52.4,505.86Zm39.9-2c-3.22,2.5-6,3.14-8.63,2-11.83-5.42-14.58-46-14.84-50.43a25.39,25.39,0,0,0,2.68-50.53l20.86-10.56c5.09,2.84,34.81,20.55,37.38,48.11C131.61,462.45,119,483.12,92.3,503.9Zm39.28-61.13c0-13.08,8.46-21.33,11-23.52l0,.05.12.07,11.86,23.4L143,466.31C140.38,464.17,131.58,455.92,131.58,442.77Zm122.33,25.06c-21.43,27.5-42.49,40.38-62.57,38.26-28.23-3-45.45-35.11-47.24-38.6l10.65-21.67a25.4,25.4,0,0,0,50.69-1.46c4.43.27,45,3,50.44,14.85C257.06,461.8,256.42,464.62,253.91,467.83Z"/></svg>