<svg id="Capa_1" data-name="Capa 1" xmlns="http://www.w3.org/2000/svg" viewBox="0 0 512.66 510.27"><defs><style>.cls-1{fill:#404040;}</style></defs><title>patron_oscuro</title><path class="cls-1" d="M13.3,88.7c1.35,2.67,19.12,36.66,48.76,39.79a41.56,41.56,0,0,0,4.47.23c19.37,0,39.46-13.18,59.78-39.25,2.86-3.67,3.58-7.12,2.15-10.24-4.44-9.71-29.16-13.62-43-15.07,13.87-1.45,38.57-5.35,43-15.07,1.44-3.12.71-6.57-2.14-10.25C105.09,11.56,83.86-1.28,63.2.63c-27.08,2.53-44.84,30.24-49,37.44l-.37-.72-.73.53C13,38,.65,47.14.65,63.35.65,78.57,11.83,87.58,13.3,88.7Zm113.76-8.83c1.19,2.6.55,5.43-2,8.66C103.56,116.16,82.4,129.1,62.23,127c-28.36-3-45.66-35.27-47.46-38.78l10.7-21.76A25.51,25.51,0,0,0,76.39,65C80.83,65.22,121.63,68,127.06,79.87ZM26.93,63.26a23.45,23.45,0,1,1,0,.92c0-.25,0-.49,0-.73l.05-.11ZM63.35,2.16C83.44.27,104.22,12.94,125.09,39.79c2.52,3.23,3.16,6.06,2,8.66C121.61,60.34,80.82,63.1,76.39,63.37a25.51,25.51,0,0,0-50.77-2.7L15,39.71C17.87,34.59,35.66,4.74,63.35,2.16ZM13.26,39.72l0,.05.12.07L25.26,63.35,13.64,87C11,84.84,2.19,76.54,2.19,63.35S10.68,41.93,13.26,39.72Z"/><path class="cls-1" d="M497.47,420.78c-1.3-2.58-18-34.58-46-39.41A34.47,34.47,0,0,0,470,369.52c2.67-1.35,36.67-19.12,39.79-48.76,2.2-20.75-10.93-42.36-39-64.24-3.67-2.86-7.12-3.59-10.25-2.16-9.71,4.45-13.62,29.16-15.07,43-1.44-13.86-5.35-38.57-15.06-43-3.13-1.43-6.58-.71-10.25,2.15C392.85,277.74,380,299,381.92,319.62c2.52,27.08,30.23,44.84,37.44,49l-.72.36.53.73a34.37,34.37,0,0,0,18.26,11.57c-17.25,2.71-35,15.67-53,38.7-2.86,3.67-3.58,7.12-2.15,10.24,4.44,9.71,29.16,13.62,43,15.07-13.86,1.45-38.57,5.36-43,15.07-1.44,3.12-.71,6.57,2.14,10.25,19.84,25.5,39.68,38.4,59.06,38.4,1.35,0,2.7-.06,4.05-.19,27.08-2.53,44.84-30.24,49-37.44l.37.72.73-.53c.12-.09,12.43-9.26,12.43-25.46C510.13,430.91,499,421.9,497.47,420.78Zm-36.32-165c2.61-1.19,5.44-.54,8.66,2,27.63,21.53,40.57,42.68,38.44,62.87-3,28.35-35.26,45.65-38.78,47.46l-21.77-10.7a25.52,25.52,0,0,0-1.47-50.93C446.5,302,449.27,261.19,461.15,255.76ZM444.63,355.84l-.09.05a23.46,23.46,0,1,1,.92,0l-.72,0Zm-61.19-36.37c-1.87-20.09,10.79-40.87,37.63-61.74,3.23-2.52,6.07-3.15,8.67-2,11.88,5.44,14.65,46.23,14.91,50.66A25.51,25.51,0,0,0,442,357.2L421,367.81C415.87,365,386,347.17,383.44,319.47ZM421,369.57l.06,0,.06-.13,23.52-11.91,23.65,11.63c-2.16,2.6-10.46,11.45-23.66,11.45S423.21,372.14,421,369.57Zm-37.29,60c-1.18-2.6-.54-5.43,2-8.66,21.53-27.63,42.71-40.54,62.87-38.43,28.36,3,45.66,35.26,47.46,38.78l-10.7,21.76a25.51,25.51,0,0,0-50.92,1.47C429.94,444.27,389.15,441.49,383.71,429.61Zm100.14,16.62a23.46,23.46,0,1,1,0-.93c0,.25,0,.49,0,.73l-.05.11Zm-36.42,61.09c-20.09,1.89-40.87-10.79-61.75-37.62-2.51-3.24-3.15-6.07-2-8.67,5.45-11.89,46.23-14.65,50.67-14.92a25.51,25.51,0,0,0,50.77,2.7l10.61,21C492.91,474.89,475.12,504.74,447.43,507.32Zm50.09-37.56,0-.05-.12-.07-11.91-23.51,11.62-23.65c2.61,2.16,11.45,10.46,11.45,23.66S500.09,467.56,497.52,469.76Z"/><path class="cls-1" d="M382.79,447.75c2.19-20.75-10.94-42.37-39-64.25-3.67-2.85-7.11-3.58-10.24-2.15-9.71,4.44-13.62,29.16-15.07,43-1.45-13.86-5.35-38.56-15.07-43-3.12-1.44-6.57-.71-10.25,2.14C265.86,404.72,253,426,254.93,446.61c2.53,27.07,30.24,44.84,37.44,49l-.72.37.53.73c.09.12,9.26,12.43,25.47,12.43,15.22,0,24.23-11.19,25.34-12.66C345.67,495.15,379.66,477.39,382.79,447.75Zm-65,35.14-.11-.06-.08.05a23.45,23.45,0,1,1,.92,0C318.23,482.92,318,482.89,317.75,482.89Zm-61.29-36.43c-1.87-20.1,10.79-40.87,37.63-61.75,3.23-2.51,6.06-3.15,8.67-2,11.88,5.45,14.64,46.24,14.91,50.67a25.51,25.51,0,0,0-2.7,50.77L294,494.8C288.89,491.94,259,474.15,256.46,446.46Zm61.19,61.16c-13.14,0-21.43-8.5-23.63-11.07l.05,0,.07-.12,23.51-11.91,23.65,11.62C339.14,498.78,330.84,507.62,317.65,507.62ZM342.48,495l-21.76-10.7a25.51,25.51,0,0,0-1.47-50.92c.26-4.45,3-45.24,14.92-50.68,2.59-1.18,5.43-.54,8.66,2,27.63,21.53,40.56,42.69,38.43,62.87C378.27,475.94,346,493.24,342.48,495Z"/><path class="cls-1" d="M212.42,444.47c13.86-1.44,38.57-5.35,43-15.06,1.43-3.13.71-6.58-2.15-10.25C232.07,391.88,210.85,379,190.19,381c-27.08,2.52-44.85,30.23-49,37.44l-.36-.72-.73.53a34.22,34.22,0,0,0-12,20.13C123,414,98.18,398.09,91.42,394.16l.72-.36-.53-.73a34.21,34.21,0,0,0-20.12-12c24.33-5.11,40.23-29.93,44.16-36.69l.36.72.73-.53a34.44,34.44,0,0,0,11.56-18.26c2.72,17.26,15.69,35,38.71,53a11.61,11.61,0,0,0,7,2.86,7.58,7.58,0,0,0,3.22-.71c9.71-4.44,13.62-29.16,15.07-43,1.45,13.86,5.35,38.56,15.06,43a7.7,7.7,0,0,0,3.23.72,11.67,11.67,0,0,0,7-2.86c23.46-18.26,36.23-36.52,38.12-54.41A34.44,34.44,0,0,0,267.28,342c1.35,2.67,19.12,36.67,48.75,39.8a41.69,41.69,0,0,0,4.47.23c19.38,0,39.46-13.18,59.78-39.25,2.86-3.67,3.58-7.12,2.15-10.24-4.44-9.71-29.16-13.62-43-15.07,13.86-1.45,38.56-5.35,43-15.07,1.44-3.12.72-6.57-2.14-10.25C359.06,264.89,337.84,252,317.17,254c-27.08,2.53-44.84,30.24-49,37.44l-.37-.72-.73.53a34.27,34.27,0,0,0-12,20.13C250,287,225.17,271.1,218.41,267.18l.72-.37-.53-.73a34.44,34.44,0,0,0-19.14-11.76c23.78-5.56,39.3-29.82,43.17-36.48l.37.72.73-.53a34.5,34.5,0,0,0,11.56-18.26C258,217,271,234.78,294,252.72a11.68,11.68,0,0,0,7,2.87,7.77,7.77,0,0,0,3.22-.71c9.71-4.45,13.62-29.16,15.07-43,1.44,13.86,5.35,38.57,15.06,43a7.63,7.63,0,0,0,3.23.71,11.61,11.61,0,0,0,7-2.86c23.47-18.25,36.23-36.51,38.13-54.4a34.57,34.57,0,0,0,11.51,17.12c1.35,2.67,19.12,36.67,48.76,39.79a41.51,41.51,0,0,0,4.46.24c19.38,0,39.47-13.18,59.78-39.25,2.86-3.68,3.59-7.12,2.16-10.25-4.45-9.71-29.16-13.62-43-15.07,13.86-1.44,38.57-5.35,43-15.06,1.43-3.13.71-6.58-2.15-10.25-21.22-27.29-42.44-40.16-63.1-38.22-27.08,2.53-44.84,30.24-49,37.45l-.37-.72-.73.53a34.21,34.21,0,0,0-12,20.12c-5.11-24.33-29.93-40.23-36.69-44.16l.73-.36-.54-.73a34.26,34.26,0,0,0-19.47-11.85c24-5.4,39.62-29.86,43.51-36.56l.36.72.73-.53A34.38,34.38,0,0,0,382.27,73C385,90.28,398,108,421,126a11.61,11.61,0,0,0,7,2.86,7.58,7.58,0,0,0,3.22-.71c9.71-4.44,13.62-29.16,15.07-43,1.45,13.86,5.36,38.56,15.07,43a7.63,7.63,0,0,0,3.22.72,11.67,11.67,0,0,0,7-2.86c27.28-21.22,40.14-42.45,38.21-63.11-2.52-27.07-30.24-44.84-37.44-49l.72-.37-.53-.73c-.09-.12-9.26-12.43-25.46-12.43C431.88.32,422.88,11.51,421.76,13c-2.59,1.3-34.59,18-39.42,46a34.51,34.51,0,0,0-11.85-18.54C369.14,37.8,351.37,3.8,321.73.68c-20.74-2.19-42.36,10.93-64.24,39-2.86,3.68-3.59,7.12-2.16,10.25,4.45,9.71,29.16,13.62,43,15.07-13.86,1.44-38.57,5.35-43,15.06-1.43,3.13-.71,6.58,2.15,10.25,18.06,23.23,36.13,36,53.85,38.06a34.67,34.67,0,0,0-16.57,11.34c-2.59,1.31-34.58,18-39.41,46a34.45,34.45,0,0,0-11.86-18.55c-1.3-2.57-17.81-34.15-45.48-39.3a34.52,34.52,0,0,0,18-11.72c2.67-1.35,36.67-19.12,39.79-48.75,2.19-20.75-10.93-42.37-39-64.25C213.11.33,209.67-.4,206.54,1c-9.71,4.45-13.62,29.16-15.07,43C190,30.2,186.12,5.49,176.41,1c-3.13-1.43-6.58-.71-10.25,2.15C138.88,24.41,126,45.64,127.94,66.29c2.53,27.08,30.24,44.85,37.45,49l-.72.36.53.73a34.32,34.32,0,0,0,17.63,11.42c-17.05,2.93-34.6,15.86-52.33,38.61-2.86,3.67-3.58,7.12-2.15,10.24,4.44,9.71,29.16,13.62,43,15.07-13.86,1.45-38.56,5.36-43,15.07-1.44,3.12-.72,6.57,2.14,10.25,17.95,23.07,35.9,35.79,53.5,38a34.78,34.78,0,0,0-16.22,11.23c-2.58,1.3-34.58,18-39.41,46a34.47,34.47,0,0,0-11.85-18.54c-1.3-2.56-17.68-33.87-45.13-39.23A34.48,34.48,0,0,0,89,242.93c2.67-1.35,36.67-19.11,39.8-48.75,2.19-20.75-10.94-42.37-39-64.25-3.67-2.86-7.12-3.58-10.24-2.15-9.71,4.44-13.62,29.16-15.07,43-1.45-13.86-5.36-38.56-15.07-43-3.13-1.44-6.57-.71-10.25,2.14C11.89,151.15-1,172.38,1,193c2.52,27.07,30.24,44.84,37.44,49l-.72.37.53.73a34.49,34.49,0,0,0,17.24,11.32c-16.93,3.06-34.34,16-51.93,38.54-2.86,3.67-3.59,7.12-2.16,10.25,4.45,9.71,29.16,13.62,43,15.07-13.86,1.44-38.57,5.35-43,15.06C-.06,336.53.66,340,3.52,343.65c18.25,23.47,36.51,36.23,54.4,38.13A34.57,34.57,0,0,0,40.8,393.29C38.13,394.64,4.13,412.41,1,442.05c-2.19,20.75,10.94,42.36,39,64.24a11.63,11.63,0,0,0,7,2.87,7.77,7.77,0,0,0,3.22-.71c9.71-4.45,13.62-29.16,15.07-43,1.44,13.86,5.35,38.57,15.06,43a7.64,7.64,0,0,0,3.23.72,11.63,11.63,0,0,0,7-2.87c23.47-18.25,36.23-36.51,38.12-54.41A34.62,34.62,0,0,0,140.29,469c1.35,2.67,19.12,36.67,48.75,39.79a41.84,41.84,0,0,0,4.47.24c19.38,0,39.47-13.18,59.78-39.25,2.86-3.68,3.59-7.12,2.16-10.25C251,449.83,226.29,445.92,212.42,444.47Zm-22.08-62c20.09-1.89,40.86,10.79,61.74,37.63,2.51,3.23,3.15,6.07,2,8.67-5.44,11.88-46.22,14.65-50.66,14.91a25.51,25.51,0,0,0-50.77-2.7L142,420C144.85,414.9,162.64,385.05,190.34,382.47Zm-36.43,61.29.05-.1,0-.09a23.22,23.22,0,1,1,0,.92C153.87,444.25,153.9,444,153.91,443.76ZM193,279.93l.11.05.08,0a23.21,23.21,0,1,1-.92-.05C192.55,279.89,192.79,279.92,193,279.93ZM381,333.2c1.2,2.6.55,5.43-2,8.66-21.53,27.63-42.7,40.56-62.87,38.43-28.36-3-45.66-35.26-47.46-38.78l10.7-21.76a25.52,25.52,0,0,0,50.93-1.47C334.81,318.55,375.6,321.32,381,333.2ZM280.91,316.59a23.21,23.21,0,1,1-.05.92c0-.25,0-.49,0-.73l.05-.11Zm36.41-61.1c20.11-1.87,40.87,10.79,61.75,37.63,2.51,3.23,3.15,6.06,2,8.67-5.45,11.88-46.23,14.64-50.67,14.91a25.51,25.51,0,0,0-50.77-2.7L269,293C271.84,287.92,289.63,258.07,317.32,255.49Zm-50.09,37.56,0,.05.12.07,11.91,23.51-11.62,23.65c-2.61-2.16-11.45-10.46-11.45-23.65S264.66,295.25,267.23,293.05Zm-12.91,23.3c1.87,20.1-10.79,40.87-37.63,61.74-3.23,2.52-6.06,3.16-8.66,2-11.89-5.45-14.65-46.23-14.92-50.67a25.51,25.51,0,0,0,2.7-50.77l21-10.61C221.89,270.87,251.74,288.66,254.32,316.35Zm65.7-163,.1,0,.09,0a23.22,23.22,0,1,1-.92,0C319.53,153.3,319.77,153.33,320,153.34Zm188,53.27c1.19,2.6.55,5.44-2,8.66-21.53,27.63-42.69,40.57-62.87,38.44-28.35-3-45.65-35.27-47.45-38.78l10.69-21.77a25.52,25.52,0,0,0,50.93-1.47C461.79,192,502.58,194.73,508,206.61ZM407.89,190a23.46,23.46,0,1,1,0,.92c0-.24,0-.48,0-.73l.06-.1Zm36.42-61.1c20.08-1.86,40.87,10.79,61.74,37.63,2.51,3.23,3.16,6.07,2,8.67-5.44,11.88-46.23,14.65-50.66,14.91a25.51,25.51,0,0,0-50.77-2.7L396,166.46C398.83,161.33,416.62,131.48,444.31,128.9Zm-50.1,37.56,0,.06.13.06,11.91,23.52L394.6,213.74c-2.61-2.16-11.46-10.46-11.46-23.65S391.64,168.67,394.21,166.46Zm-12.9,23.31c1.87,20.09-10.79,40.87-37.63,61.74-3.23,2.51-6.07,3.15-8.67,2-11.88-5.44-14.64-46.22-14.91-50.66A25.51,25.51,0,0,0,322.8,152l20.95-10.62C348.88,144.28,378.73,162.07,381.31,189.77ZM447,26.6l.11,0,.09,0a23.23,23.23,0,1,1-.93-.05C446.52,26.56,446.76,26.59,447,26.6ZM508.29,63c1.87,20.1-10.79,40.87-37.62,61.75-3.24,2.51-6.08,3.15-8.67,2-11.89-5.45-14.65-46.24-14.92-50.67a25.5,25.5,0,0,0,2.7-50.76l21-10.62C475.86,17.54,505.71,35.33,508.29,63ZM447.11,1.86c13.13,0,21.42,8.5,23.62,11.07l-.05,0-.07.12L447.1,24.93,423.45,13.31C425.61,10.7,433.91,1.86,447.11,1.86Zm-63.62,60c3-28.36,35.27-45.66,38.78-47.46L444,25.14a25.51,25.51,0,0,0,1.47,50.92c-.26,4.45-3,45.24-14.92,50.68-2.59,1.18-5.43.54-8.66-2C394.29,103.24,381.36,82.09,383.49,61.9Zm-1.88,3.92c0,13.14-8.5,21.42-11.07,23.63l0-.06-.13-.06L358.53,65.81l11.63-23.64C372.76,44.33,381.61,52.63,381.61,65.82ZM256.73,49.3c-1.19-2.6-.55-5.44,2-8.66C280.23,13,301.4.07,321.57,2.2,349.92,5.19,367.22,37.47,369,41l-10.7,21.77a25.52,25.52,0,0,0-50.93,1.47C303,64,262.17,61.18,256.73,49.3ZM356.86,65.91a23.22,23.22,0,1,1,.05-.92c0,.24,0,.48,0,.73l-.05.1ZM258.7,89.38c-2.51-3.23-3.16-6.07-2-8.67C262.18,68.83,303,66.06,307.4,65.8a25.51,25.51,0,0,0,50.77,2.7l10.62,21c-2.86,5.13-20.65,35-48.35,37.56C300.33,128.9,279.57,116.22,258.7,89.38ZM318,128.69l.93,0c.39,0,.78-.05,1.19-.05,13.14,0,21.42,8.5,23.63,11.07l-.06,0-.06.13-23.51,11.91-23.66-11.63C298.5,137.59,306,129.56,318,128.69Zm-61.5,59.95c3-28.36,35.27-45.66,38.78-47.46l21.77,10.7a25.52,25.52,0,0,0,1.47,50.93c-.27,4.45-3,45.24-14.92,50.67-2.6,1.19-5.44.54-8.66-2C267.31,230,254.37,208.83,256.5,188.64Zm-1.88,3.92c0,13.14-8.49,21.42-11.07,23.63l0-.05-.12-.07-11.92-23.51,11.63-23.65C245.78,171.07,254.62,179.37,254.62,192.56ZM207.18,2.43c2.59-1.19,5.43-.55,8.66,2,27.63,21.53,40.57,42.68,38.44,62.87-3,28.36-35.27,45.66-38.78,47.46L193.73,104a25.52,25.52,0,0,0-1.47-50.93C192.53,48.65,195.3,7.86,207.18,2.43ZM190.66,102.52l-.09,0a23.22,23.22,0,1,1,.92,0c-.24,0-.48,0-.73,0ZM129.47,66.14C127.6,46.05,140.26,25.27,167.1,4.4c3.23-2.51,6.07-3.15,8.67-2,11.88,5.44,14.64,46.22,14.91,50.66a25.51,25.51,0,0,0-2.7,50.77L167,114.49C161.9,111.63,132.05,93.84,129.47,66.14ZM167,116.24l.06,0,.06-.13,23.51-11.91,23.65,11.63c-2.07,2.5-9.79,10.7-22,11.38-1.23-.06-2.45-.06-3.69,0C176.66,126.4,169.12,118.67,167,116.24ZM129.74,176c-1.19-2.6-.54-5.43,2-8.66,19.46-25,38.62-37.94,57-38.63.64,0,1.27.09,1.93.09.51,0,1,0,1.48-.07.81,0,1.63.09,2.44.18,28.36,3,45.66,35.26,47.46,38.78l-10.7,21.76A25.52,25.52,0,0,0,180.41,191C176,190.7,135.18,187.93,129.74,176Zm100.13,16.61a23.21,23.21,0,1,1,0-.92c0,.25,0,.49,0,.73l0,.11Zm-98.16,23.48c-2.51-3.24-3.15-6.07-2-8.67,5.45-11.89,46.24-14.65,50.67-14.92a25.5,25.5,0,0,0,50.76,2.7l10.62,21c-2.84,5.09-20.44,34.61-47.86,37.49-.27,0-.53,0-.81,0a29.61,29.61,0,0,0-3.82.27C170.52,253.82,151.16,241.13,131.71,216.13Zm57.63,39.33h.22c1.35,0,2.7-.06,4.05-.19l.44-.06c12.6.39,20.55,8.52,22.71,11l0,0-.07.12-23.51,11.91-23.65-11.62C171.42,264.29,178.35,256.92,189.34,255.46Zm-59.82,59.77c3-28.36,35.27-45.66,38.78-47.46l21.76,10.7a25.52,25.52,0,0,0,1.47,50.93c-.27,4.44-3,45.23-14.92,50.66-2.6,1.19-5.43.55-8.66-2C140.32,356.56,127.39,335.41,129.52,315.23Zm-1.88,3.92c0,13.14-8.5,21.42-11.07,23.62l0,0-.13-.06-11.91-23.52,11.62-23.64C118.79,297.66,127.64,306,127.64,319.15Zm-47.44-190c2.59-1.18,5.43-.54,8.66,2,27.63,21.53,40.56,42.69,38.43,62.87-3,28.36-35.27,45.66-38.78,47.46l-21.76-10.7a25.51,25.51,0,0,0-1.47-50.92C65.54,175.4,68.32,134.61,80.2,129.17ZM63.67,229.26l-.08,0a23.21,23.21,0,1,1,.92,0c-.25,0-.49,0-.73,0ZM2.49,192.89C.62,172.79,13.28,152,40.11,131.14c3.23-2.51,6.07-3.15,8.67-2,11.89,5.45,14.65,46.24,14.92,50.67A25.51,25.51,0,0,0,61,230.62L40,241.23C34.92,238.37,5.07,220.58,2.49,192.89ZM40.05,243l.05,0,.07-.12L63.68,231,87.33,242.6c-2,2.42-9.28,10.17-20.82,11.3a42.91,42.91,0,0,0-6,0A32.41,32.41,0,0,1,40.05,243ZM2.76,302.63c-1.19-2.6-.55-5.43,2-8.66,19-24.39,37.71-37.32,55.71-38.56a30.88,30.88,0,0,0,3.24.18c1,0,1.95-.05,2.89-.14l1,.08c28.35,3,45.65,35.26,47.45,38.78l-10.69,21.77a25.52,25.52,0,0,0-50.93,1.47C49,317.28,8.19,314.51,2.76,302.63Zm100.13,16.61a23.46,23.46,0,1,1,0-.92c0,.24,0,.48,0,.72l-.06.11ZM4.73,342.71c-2.51-3.23-3.16-6.07-2-8.67C8.21,322.16,49,319.4,53.43,319.13a25.51,25.51,0,0,0,50.77,2.7l10.61,20.95c-2.85,5.12-20.64,35-48.34,37.56C46.38,382.21,25.6,369.55,4.73,342.71Zm61.42,39.46c13.14,0,21.42,8.5,23.63,11.07l-.06,0-.06.13L66.14,405.25,42.49,393.63C44.65,391,53,382.17,66.15,382.17Zm0,24.79.09,0a23.22,23.22,0,1,1-.92-.05c.24,0,.48,0,.72,0ZM49.63,507.05c-2.6,1.19-5.44.55-8.66-2C13.34,483.55.4,462.4,2.53,442.21c3-28.35,35.26-45.65,38.78-47.45l21.77,10.69a25.52,25.52,0,0,0,1.47,50.93C64.28,460.83,61.51,501.61,49.63,507.05Zm40.08-2c-3.23,2.51-6.07,3.15-8.67,2-11.88-5.44-14.65-46.22-14.91-50.66a25.51,25.51,0,0,0,2.7-50.77l21-10.61c5.12,2.85,35,20.64,37.56,48.34C129.21,463.43,116.55,484.21,89.71,505.08Zm39.46-61.42c0-13.14,8.5-21.42,11.07-23.63l0,.06.13.06,11.91,23.52-11.63,23.65C138,465.16,129.17,456.88,129.17,443.66Zm122.91,25.18c-21.53,27.63-42.69,40.57-62.87,38.44-28.36-3-45.66-35.27-47.46-38.78l10.7-21.77a25.52,25.52,0,0,0,50.93-1.47c4.45.27,45.23,3,50.67,14.92C255.24,462.78,254.6,465.61,252.08,468.84Z"/></svg>