<svg id="Capa_1" data-name="Capa 1" xmlns="http://www.w3.org/2000/svg" viewBox="0 0 15.76 15.68"><defs><style>.cls-1{fill:#f26b6b;}</style></defs><title>patron_salmon_chicochico</title><path class="cls-1" d="M.46,2.74C.5,2.82,1,3.87,2,4h.14a2.53,2.53,0,0,0,1.84-1.2A.31.31,0,0,0,4,2.45C3.85,2.15,3.1,2,2.67,2,3.1,1.94,3.85,1.82,4,1.53a.3.3,0,0,0-.06-.32C3.27.37,2.62,0,2,0A2.27,2.27,0,0,0,.48,1.19v0h0A1.05,1.05,0,0,0,.07,2,1,1,0,0,0,.46,2.74ZM4,2.47a.24.24,0,0,1-.06.27C3.23,3.58,2.58,4,2,3.92,1.09,3.82.56,2.83.5,2.73l.33-.67a.78.78,0,0,0,.78.71A.78.78,0,0,0,2.39,2C2.53,2,3.78,2.11,4,2.47ZM.87,2a.75.75,0,0,1,.74-.71A.74.74,0,1,1,.87,2V2h0ZM2,.09C2.61,0,3.25.42,3.89,1.24A.26.26,0,0,1,4,1.51C3.78,1.87,2.53,2,2.39,2a.78.78,0,0,0-.78-.76.8.8,0,0,0-.78.68L.51,1.24A2.19,2.19,0,0,1,2,.09ZM.45,1.24h0L.82,2l-.35.73A1,1,0,0,1,.12,2,1,1,0,0,1,.45,1.24Z"/><path class="cls-1" d="M15.32,12.94a2.29,2.29,0,0,0-1.41-1.21,1.06,1.06,0,0,0,.57-.37A2.26,2.26,0,0,0,15.7,9.87c.06-.64-.34-1.31-1.2-2a.3.3,0,0,0-.32-.06c-.29.13-.41.89-.46,1.32,0-.43-.16-1.19-.46-1.32a.31.31,0,0,0-.32.06,2.37,2.37,0,0,0-1.17,1.94,2.27,2.27,0,0,0,1.15,1.51h0l0,0a1,1,0,0,0,.56.35,2.86,2.86,0,0,0-1.63,1.19.31.31,0,0,0-.07.32c.14.29.9.41,1.32.46-.42,0-1.18.16-1.32.46a.31.31,0,0,0,.07.32,2.47,2.47,0,0,0,1.81,1.17h.13a2.25,2.25,0,0,0,1.5-1.15v0h0a1.09,1.09,0,0,0,.38-.79A1,1,0,0,0,15.32,12.94ZM14.2,7.87a.24.24,0,0,1,.27.06c.85.66,1.25,1.31,1.18,1.93-.09.87-1.08,1.4-1.19,1.46L13.79,11a.79.79,0,0,0,.72-.78.78.78,0,0,0-.76-.78C13.75,9.29,13.84,8,14.2,7.87Zm-.5,3.07h0a.73.73,0,0,1-.7-.73.74.74,0,1,1,1.47,0,.74.74,0,0,1-.74.74ZM11.82,9.83c-.06-.62.33-1.26,1.15-1.9a.24.24,0,0,1,.27-.06c.36.17.45,1.42.46,1.56A.78.78,0,0,0,13.61,11l-.64.33A2.21,2.21,0,0,1,11.82,9.83ZM13,11.36h0L13.7,11l.72.36a1,1,0,0,1-.72.35A1,1,0,0,1,13,11.36Zm-1.14,1.85a.24.24,0,0,1,.06-.27c.66-.85,1.31-1.24,1.93-1.18A2.17,2.17,0,0,1,15.27,13l-.32.67a.8.8,0,0,0-.78-.72.79.79,0,0,0-.79.76C13.25,13.66,12,13.57,11.83,13.21Zm3.07.51a.74.74,0,0,1-.73.71.74.74,0,0,1,0-1.48.74.74,0,0,1,.73.74v0h0Zm-1.12,1.87c-.61.06-1.25-.33-1.89-1.15a.24.24,0,0,1-.06-.27c.16-.36,1.42-.45,1.55-.46a.79.79,0,0,0,.79.76.78.78,0,0,0,.77-.67l.33.64A2.24,2.24,0,0,1,13.78,15.59Zm1.54-1.15h0L15,13.71l.36-.72a1,1,0,0,1,.35.72A1,1,0,0,1,15.32,14.44Z"/><path class="cls-1" d="M11.8,13.76c.07-.63-.34-1.3-1.2-2a.27.27,0,0,0-.31-.06c-.3.13-.42.89-.47,1.32,0-.43-.16-1.19-.46-1.32a.27.27,0,0,0-.31.06c-.84.65-1.24,1.3-1.18,1.94A2.25,2.25,0,0,0,9,15.23H9l0,0a1,1,0,0,0,1.56,0A2.28,2.28,0,0,0,11.8,13.76Zm-2,1.08h0a.74.74,0,0,1,0-1.47.74.74,0,1,1,0,1.47ZM7.92,13.72c-.06-.61.33-1.25,1.16-1.89a.23.23,0,0,1,.26-.06c.37.17.45,1.42.46,1.55a.78.78,0,0,0-.08,1.56l-.65.33A2.27,2.27,0,0,1,7.92,13.72ZM9.8,15.6a1,1,0,0,1-.73-.34h0l.72-.37.72.36A1,1,0,0,1,9.8,15.6Zm.76-.38-.67-.33a.79.79,0,0,0,0-1.57c0-.13.09-1.39.46-1.55.08,0,.16,0,.26.06.85.66,1.25,1.31,1.18,1.93C11.66,14.63,10.67,15.16,10.56,15.22Z"/><path class="cls-1" d="M6.57,13.66c.42,0,1.18-.16,1.32-.46a.29.29,0,0,0-.07-.31c-.65-.84-1.3-1.24-1.93-1.18a2.27,2.27,0,0,0-1.51,1.15v0l0,0a1,1,0,0,0-.37.61,2.37,2.37,0,0,0-1.13-1.35h0l0,0a1.06,1.06,0,0,0-.62-.36A2.36,2.36,0,0,0,3.6,10.59v0h0A1.08,1.08,0,0,0,4,10a2.78,2.78,0,0,0,1.18,1.62.37.37,0,0,0,.22.09l.1,0c.3-.14.42-.9.46-1.32,0,.42.17,1.18.46,1.32l.1,0a.37.37,0,0,0,.22-.09A2.64,2.64,0,0,0,7.9,10a1.12,1.12,0,0,0,.35.53,2.28,2.28,0,0,0,1.5,1.22h.14a2.53,2.53,0,0,0,1.83-1.21.3.3,0,0,0,.07-.31c-.14-.3-.9-.42-1.32-.47.42,0,1.18-.16,1.32-.46A.3.3,0,0,0,11.72,9,2.37,2.37,0,0,0,9.78,7.81,2.25,2.25,0,0,0,8.28,9v0l0,0a1,1,0,0,0-.37.62A2.36,2.36,0,0,0,6.75,8.22h0v0a1,1,0,0,0-.59-.36A2.46,2.46,0,0,0,7.5,6.71v0l0,0a1,1,0,0,0,.35-.56A2.86,2.86,0,0,0,9.07,7.78a.35.35,0,0,0,.22.08.18.18,0,0,0,.1,0c.3-.13.42-.89.46-1.32,0,.43.16,1.19.46,1.32a.18.18,0,0,0,.1,0,.35.35,0,0,0,.22-.08A2.64,2.64,0,0,0,11.8,6.11a1.06,1.06,0,0,0,.35.52c0,.08.59,1.13,1.5,1.22h.13a2.51,2.51,0,0,0,1.84-1.2.31.31,0,0,0,.07-.32c-.14-.3-.9-.42-1.33-.46.43,0,1.19-.17,1.33-.46a.31.31,0,0,0-.07-.32,2.33,2.33,0,0,0-1.94-1.17,2.25,2.25,0,0,0-1.5,1.15v0h0a1.11,1.11,0,0,0-.36.62,2.4,2.4,0,0,0-1.13-1.36h0v0a1.1,1.1,0,0,0-.6-.36,2.42,2.42,0,0,0,1.33-1.12l0,0,0,0a1,1,0,0,0,.35-.56A2.82,2.82,0,0,0,13,3.89a.42.42,0,0,0,.22.08.2.2,0,0,0,.1,0c.29-.13.41-.89.46-1.32,0,.43.16,1.19.46,1.32a.18.18,0,0,0,.1,0,.37.37,0,0,0,.21-.08c.84-.66,1.24-1.31,1.18-1.94A2.27,2.27,0,0,0,14.55.44h0l0,0A1,1,0,0,0,13.77,0,1,1,0,0,0,13,.42a2.35,2.35,0,0,0-1.21,1.41,1,1,0,0,0-.36-.57A2.28,2.28,0,0,0,9.92,0C9.29,0,8.62.38,8,1.24a.27.27,0,0,0-.06.31c.13.3.89.42,1.32.46-.43.05-1.19.17-1.32.47A.27.27,0,0,0,8,2.79,2.67,2.67,0,0,0,9.61,4a1,1,0,0,0-.51.35A2.29,2.29,0,0,0,7.89,5.72a1.06,1.06,0,0,0-.37-.57A2.29,2.29,0,0,0,6.13,4a1.16,1.16,0,0,0,.55-.36c.08,0,1.12-.59,1.22-1.5C8,1.45,7.56.79,6.7.12A.3.3,0,0,0,6.39.05C6.09.19,6,1,5.93,1.37,5.88,1,5.76.19,5.46.05a.3.3,0,0,0-.31.07C4.31.77,3.92,1.42,4,2.05A2.21,2.21,0,0,0,5.12,3.56h0l0,0a1,1,0,0,0,.54.35A2.86,2.86,0,0,0,4.05,5.13.29.29,0,0,0,4,5.44c.13.3.89.42,1.32.47-.43,0-1.19.16-1.32.46a.29.29,0,0,0,.06.31A2.69,2.69,0,0,0,5.7,7.85a1.09,1.09,0,0,0-.5.34A2.35,2.35,0,0,0,4,9.61,1.06,1.06,0,0,0,3.62,9,2.33,2.33,0,0,0,2.24,7.83a1.1,1.1,0,0,0,.54-.35C2.86,7.43,3.91,6.89,4,6c.07-.64-.33-1.3-1.2-2a.29.29,0,0,0-.31-.07c-.3.14-.42.9-.46,1.32,0-.42-.17-1.18-.46-1.32A.31.31,0,0,0,1.25,4C.41,4.66,0,5.31.08,5.94A2.25,2.25,0,0,0,1.23,7.45h0l0,0a1,1,0,0,0,.53.35A2.82,2.82,0,0,0,.16,9a.31.31,0,0,0-.07.32c.14.3.9.42,1.32.46C1,9.84.23,10,.09,10.25a.31.31,0,0,0,.07.32,2.64,2.64,0,0,0,1.67,1.17,1.12,1.12,0,0,0-.53.35c-.08,0-1.13.59-1.22,1.5-.07.64.33,1.3,1.2,2a.32.32,0,0,0,.21.09l.1,0c.3-.14.42-.9.46-1.32.05.42.17,1.18.47,1.32l.1,0a.35.35,0,0,0,.21-.09A2.64,2.64,0,0,0,4,13.89a1.19,1.19,0,0,0,.35.53c.05.08.59,1.12,1.5,1.22H6a2.51,2.51,0,0,0,1.83-1.2.3.3,0,0,0,.07-.31C7.75,13.83,7,13.71,6.57,13.66Zm-.68-1.9c.62-.06,1.26.33,1.9,1.15a.29.29,0,0,1,.06.27c-.17.37-1.42.45-1.56.46a.78.78,0,0,0-1.56-.08l-.32-.65A2.21,2.21,0,0,1,5.89,11.76ZM4.77,13.64h0a.74.74,0,1,1,.74.76.74.74,0,0,1-.74-.76Zm1.2-5H6a.75.75,0,0,1,.71.74A.74.74,0,1,1,6,8.61Zm5.77,1.64c0,.08,0,.16-.06.26-.66.85-1.31,1.25-1.93,1.18A2.17,2.17,0,0,1,8.3,10.5l.33-.67a.78.78,0,0,0,1.56,0C10.33,9.8,11.58,9.88,11.74,10.25ZM8.67,9.74a.74.74,0,1,1,.74.76.74.74,0,0,1-.74-.76v0ZM9.79,7.86C10.41,7.8,11,8.19,11.68,9c.08.1.1.18.06.26-.16.37-1.41.45-1.55.46a.78.78,0,0,0-1.56-.08L8.3,9A2.27,2.27,0,0,1,9.79,7.86ZM8.25,9h0l.37.72-.36.73A.94.94,0,0,1,8.25,9Zm-.4.72c.06.62-.33,1.25-1.15,1.9a.29.29,0,0,1-.27.06C6.07,11.52,6,10.27,6,10.13a.78.78,0,0,0,.08-1.56l.64-.32A2.16,2.16,0,0,1,7.85,9.73Zm2-5h0a.73.73,0,0,1,.71.73.74.74,0,1,1-.74-.74Zm5.77,1.63a.24.24,0,0,1-.06.27c-.66.85-1.31,1.24-1.93,1.18-.87-.09-1.4-1.09-1.45-1.19L12.52,6a.79.79,0,0,0,1.57,0C14.22,5.91,15.48,6,15.64,6.36Zm-3.07-.51a.74.74,0,1,1,.73.77.74.74,0,0,1-.73-.77v0ZM13.69,4c.61-.06,1.25.33,1.89,1.15a.24.24,0,0,1,.06.27c-.16.36-1.42.45-1.55.45a.78.78,0,0,0-1.56-.08l-.33-.64A2.24,2.24,0,0,1,13.69,4ZM12.15,5.13h0l.37.72-.36.73a.93.93,0,0,1,0-1.45Zm-.4.71c.06.62-.33,1.26-1.15,1.9a.24.24,0,0,1-.27.06c-.36-.17-.45-1.42-.46-1.56A.78.78,0,0,0,10,4.69l.64-.33A2.21,2.21,0,0,1,11.75,5.84Zm2-5h0a.72.72,0,0,1,.7.73.74.74,0,1,1-.73-.74ZM15.65,2c.06.62-.33,1.26-1.15,1.9a.24.24,0,0,1-.27.06c-.36-.17-.45-1.42-.46-1.56A.78.78,0,0,0,13.86.8L14.5.47A2.21,2.21,0,0,1,15.65,2ZM13.77.08a1,1,0,0,1,.73.34h0l-.72.36L13.05.43A1,1,0,0,1,13.77.08ZM11.82,1.92C11.91,1.05,12.9.52,13,.46l.67.33a.79.79,0,0,0-.72.78.78.78,0,0,0,.76.78c0,.14-.09,1.39-.45,1.56A.24.24,0,0,1,13,3.85C12.15,3.19,11.75,2.54,11.82,1.92ZM11.76,2a1,1,0,0,1-.34.72h0L11.05,2l.36-.73A1,1,0,0,1,11.76,2ZM7.93,1.53c0-.08,0-.16.06-.26C8.65.42,9.3,0,9.92.09c.87.09,1.4,1.08,1.46,1.19L11.05,2a.78.78,0,0,0-.78-.72A.79.79,0,0,0,9.48,2C9.35,2,8.1,1.9,7.93,1.53ZM11,2a.73.73,0,0,1-.73.71A.74.74,0,1,1,11,2V2ZM8,2.76c-.08-.1-.1-.18-.06-.26C8.1,2.13,9.35,2.05,9.48,2A.78.78,0,0,0,11,2.12l.33.64A2.24,2.24,0,0,1,9.88,3.92C9.27,4,8.63,3.59,8,2.76ZM9.81,4h.06a1,1,0,0,1,.73.34h0l-.73.36-.72-.35A1,1,0,0,1,9.81,4ZM7.92,5.81C8,4.94,9,4.41,9.11,4.35l.67.33a.78.78,0,0,0-.71.78.77.77,0,0,0,.76.78c0,.14-.1,1.39-.46,1.56a.24.24,0,0,1-.27-.06C8.25,7.08,7.86,6.43,7.92,5.81Zm-.06.12a1,1,0,0,1-.34.73h0l-.36-.72.35-.73A1,1,0,0,1,7.86,5.93ZM6.41.09a.27.27,0,0,1,.26.06c.85.66,1.25,1.31,1.18,1.93A2.19,2.19,0,0,1,6.66,3.54L6,3.21A.78.78,0,0,0,6,1.65C6,1.51,6,.26,6.41.09ZM5.9,3.17h0a.74.74,0,1,1,.76-.74.74.74,0,0,1-.76.74ZM4,2.05C4,1.43,4.35.79,5.18.15A.27.27,0,0,1,5.44.09c.37.17.45,1.42.46,1.56a.78.78,0,0,0-.76.78.8.8,0,0,0,.68.78l-.64.32A2.19,2.19,0,0,1,4,2.05ZM5.18,3.59h0l.72-.36.73.36A1,1,0,0,1,6,3.92H5.84A1,1,0,0,1,5.18,3.59ZM4,5.42c0-.08,0-.16.06-.26A2.55,2.55,0,0,1,5.84,4H6c.87.09,1.4,1.08,1.46,1.19l-.33.67a.79.79,0,0,0-.78-.72.78.78,0,0,0-.78.76C5.45,5.87,4.2,5.79,4,5.42Zm3.07.51a.72.72,0,0,1-.73.71.74.74,0,1,1,.74-.74v0Zm-3,.72C4,6.55,4,6.47,4,6.39,4.2,6,5.45,5.94,5.59,5.93A.78.78,0,0,0,7.14,6l.33.65A2.27,2.27,0,0,1,6,7.81H5.86A2.43,2.43,0,0,1,4.09,6.65ZM5.86,7.86H6a1,1,0,0,1,.7.34h0L6,8.56,5.25,8.2A1,1,0,0,1,5.86,7.86ZM4,9.7A2.22,2.22,0,0,1,5.21,8.24l.67.33a.78.78,0,0,0-.71.78.78.78,0,0,0,.76.78c0,.14-.1,1.39-.46,1.56a.29.29,0,0,1-.27-.06C4.36,11,4,10.32,4,9.7Zm0,.12a1,1,0,0,1-.34.72h0l-.36-.72.35-.73A1,1,0,0,1,4,9.82ZM2.51,4A.29.29,0,0,1,2.78,4C3.62,4.71,4,5.35,4,6A2.22,2.22,0,0,1,2.77,7.43L2.1,7.1a.78.78,0,0,0,.71-.78.78.78,0,0,0-.76-.78C2.06,5.4,2.15,4.15,2.51,4ZM2,7.06H2a.75.75,0,0,1-.71-.74.74.74,0,0,1,1.48,0A.74.74,0,0,1,2,7.06H2ZM.12,5.94c0-.62.34-1.25,1.16-1.9A.29.29,0,0,1,1.55,4C1.91,4.15,2,5.4,2,5.54A.78.78,0,0,0,1.92,7.1l-.64.32A2.19,2.19,0,0,1,.12,5.94ZM1.28,7.48h0L2,7.11l.73.36a1,1,0,0,1-.64.34H1.91A1,1,0,0,1,1.28,7.48ZM.13,9.31A.29.29,0,0,1,.19,9,2.61,2.61,0,0,1,1.9,7.86h.22C3,8,3.52,9,3.58,9.05l-.33.67A.78.78,0,0,0,2.47,9a.78.78,0,0,0-.78.76C1.55,9.76.3,9.67.13,9.31Zm3.08.51a.75.75,0,0,1-.74.71.74.74,0,1,1,.74-.74v0Zm-3,.72a.29.29,0,0,1-.06-.27c.17-.36,1.42-.45,1.56-.45a.78.78,0,0,0,.78.75.79.79,0,0,0,.78-.67l.32.64a2.21,2.21,0,0,1-1.48,1.15C1.47,11.75.83,11.36.19,10.54Zm1.89,1.21a1,1,0,0,1,.72.34h0l-.72.37-.73-.36A1,1,0,0,1,2.08,11.75Zm0,.76h0a.75.75,0,0,1,.71.74.74.74,0,1,1-.74-.74Zm-.51,3.07a.23.23,0,0,1-.26-.06C.46,14.86.06,14.21.13,13.59a2.17,2.17,0,0,1,1.19-1.45l.66.33a.78.78,0,0,0-.71.78A.78.78,0,0,0,2,14C2,14.16,1.94,15.42,1.57,15.58Zm1.23-.06c-.1.08-.18.1-.26.06-.37-.16-.45-1.42-.46-1.55a.78.78,0,0,0,.08-1.56l.64-.33A2.24,2.24,0,0,1,4,13.63,2.32,2.32,0,0,1,2.8,15.52ZM4,13.64a1,1,0,0,1,.34-.73h0l.36.72-.36.72A1,1,0,0,1,4,13.64Zm3.78.77c-.66.85-1.31,1.25-1.93,1.18A2.19,2.19,0,0,1,4.4,14.4l.33-.67a.78.78,0,0,0,1.56,0c.14,0,1.39.09,1.56.46A.27.27,0,0,1,7.79,14.41Z"/></svg>