<svg id="Capa_1" data-name="Capa 1" xmlns="http://www.w3.org/2000/svg" viewBox="0 0 332.55 84.72"><defs><style>.cls-1{fill:#f26b6b;}</style></defs><title>patronSimpleSalmon</title><path class="cls-1" d="M290.57,49.74A16.63,16.63,0,1,1,307.2,33.11,16.66,16.66,0,0,1,290.57,49.74Zm0-32.26A15.63,15.63,0,1,0,306.2,33.11,15.65,15.65,0,0,0,290.57,17.48Z"/><path class="cls-1" d="M291.11,17.53,274.18,9.21l.34-.48c.06-.08,6-8.34,16.59-8.34s16.52,8,16.58,8.09L308,9ZM275.7,8.85l15.41,7.57,15.4-7.81a20.82,20.82,0,0,0-15.4-7.22C282.52,1.39,277.11,7.15,275.7,8.85Z"/><path class="cls-1" d="M278.67,84.09a7.6,7.6,0,0,1-4.58-1.86C255.8,68,247.25,53.9,248.68,40.38c2.11-20,25.79-31.69,26-31.81l.44.9c-.24.12-23.43,11.59-25.47,31-1.39,13.15,7,26.93,25,40.95,2.1,1.64,4,2,5.64,1.28,8.14-3.73,9.72-33,9.73-33.27l1,0c-.06,1.23-1.63,30.15-10.31,34.13A5,5,0,0,1,278.67,84.09Z"/><path class="cls-1" d="M302.49,84.09a4.87,4.87,0,0,1-2.1-.47c-8.69-4-10.25-32.89-10.31-34.12l1,0c0,.29,1.58,29.53,9.73,33.27,1.69.77,3.54.35,5.64-1.28,17.48-13.6,25.73-27.13,24.51-40.22-1.83-19.63-24.73-31.63-25-31.75l.46-.89c.24.12,23.61,12.36,25.5,32.55,1.25,13.45-7.12,27.28-24.89,41.1A7.6,7.6,0,0,1,302.49,84.09Z"/><path class="cls-1" d="M216.73,59.14A16.64,16.64,0,1,1,233.36,42.5,16.66,16.66,0,0,1,216.73,59.14Zm0-32.27A15.64,15.64,0,1,0,232.36,42.5,15.65,15.65,0,0,0,216.73,26.87Z"/><path class="cls-1" d="M240.88,60,232.3,43.05l8.33-16.93.47.34c.09.06,8.35,6,8.35,16.59s-8,16.52-8.1,16.58ZM233.42,43l7.81,15.41a20.82,20.82,0,0,0,7.22-15.4c0-8.6-5.76-14-7.46-15.41Z"/><path class="cls-1" d="M200.34,43c-1.23-.07-30.15-1.63-34.13-10.32-.93-2-.46-4.28,1.4-6.67C181.86,7.74,195.94-.82,209.46.62c20,2.11,31.69,25.79,31.81,26l-.9.43c-.12-.23-11.59-23.42-31-25.47-13.14-1.38-26.93,7-40.95,25-1.64,2.11-2.06,3.95-1.28,5.65,3.72,8.14,33,9.71,33.27,9.73Z"/><path class="cls-1" d="M206.08,84c-12.63,0-25.55-8.4-38.47-25-1.86-2.39-2.33-4.64-1.4-6.67,4-8.69,32.9-10.25,34.13-10.31l0,1c-.29,0-29.53,1.58-33.27,9.72-.77,1.7-.36,3.55,1.28,5.65C182,75.87,195.53,84.11,208.61,82.9c19.64-1.83,31.64-24.73,31.76-25l.89.46c-.12.23-12.36,23.61-32.55,25.49C207.83,84,207,84,206.08,84Z"/><path class="cls-1" d="M124.63,68a16.63,16.63,0,1,1,16.63-16.63A16.66,16.66,0,0,1,124.63,68Zm0-32.26a15.63,15.63,0,1,0,15.63,15.63A15.65,15.65,0,0,0,124.63,35.74Z"/><path class="cls-1" d="M124.09,84.09c-10.56,0-16.53-8-16.59-8.09l-.34-.48L124.08,67,141,75.27l-.33.48C140.62,75.83,134.65,84.09,124.09,84.09Zm-15.4-8.22a20.82,20.82,0,0,0,15.4,7.22c8.59,0,14-5.76,15.4-7.46l-15.4-7.57Z"/><path class="cls-1" d="M140.49,75.91l-.44-.9c.23-.12,23.42-11.59,25.47-31,1.39-13.15-7-26.92-25-40.95-2.1-1.64-4-2.06-5.64-1.28-8.15,3.73-9.72,33-9.74,33.27l-1-.05c.06-1.23,1.62-30.15,10.31-34.13,2-.93,4.28-.46,6.67,1.4,18.29,14.25,26.84,28.33,25.41,41.85C164.4,64.09,140.72,75.79,140.49,75.91Z"/><path class="cls-1" d="M108.74,75.9c-.24-.12-23.62-12.36-25.5-32.55C82,29.9,90.36,16.07,108.13,2.25,110.52.39,112.77-.08,114.8.86c8.7,4,10.25,32.89,10.31,34.12l-1,.05c0-.29-1.59-29.53-9.73-33.27-1.7-.77-3.54-.35-5.65,1.28C91.26,16.64,83,30.17,84.24,43.26,86.06,62.89,109,74.89,109.19,75Z"/><path class="cls-1" d="M33.06,58.61A16.64,16.64,0,1,1,49.69,42,16.65,16.65,0,0,1,33.06,58.61Zm0-32.27A15.64,15.64,0,1,0,48.69,42,15.66,15.66,0,0,0,33.06,26.34Z"/><path class="cls-1" d="M9.16,58.36,8.68,58C8.6,58,.33,52,.33,41.43s8-16.52,8.1-16.58l.48-.35,8.57,16.93-.11.23ZM8.56,26a20.81,20.81,0,0,0-7.23,15.4c0,8.6,5.77,14,7.46,15.41l7.57-15.4Z"/><path class="cls-1" d="M43.24,84a28.36,28.36,0,0,1-2.91-.15c-20-2.11-31.69-25.79-31.81-26l.9-.43c.11.23,11.58,23.42,31,25.47,13.14,1.39,26.92-7,40.94-25,1.64-2.11,2.06-4,1.29-5.65-3.73-8.14-33-9.71-33.28-9.73l.06-1c1.22.07,30.15,1.63,34.13,10.32.93,2,.46,4.28-1.41,6.67C68.94,75.43,55.86,84,43.24,84Z"/><path class="cls-1" d="M49.45,42.46l-.06-1c.3,0,29.54-1.58,33.27-9.72.78-1.7.36-3.55-1.28-5.65C67.79,8.61,54.28.36,41.17,1.58,21.52,3.42,9.53,26.31,9.41,26.54l-.88-.46C8.65,25.85,20.89,2.47,41.07.59,54.52-.67,68.35,7.71,82.17,25.48c1.86,2.39,2.33,4.64,1.4,6.67C79.59,40.84,50.67,42.4,49.45,42.46Z"/></svg>